<svg width="70" height="48" viewBox="0 0 70 48" xmlns="http://www.w3.org/2000/svg" fill="none"><rect x=".5" y=".5" width="69" height="47" rx="5.5" fill="#1F72CD" stroke="#D9D9D9"/><path fill-rule="evenodd" clip-rule="evenodd" d="M12.549 17l-6.549 14.494h7.841l.972-2.311h2.222l.972 2.311h8.63v-1.764l.769 1.764h4.464l.769-1.801v1.801h17.948l2.182-2.251 2.044 2.251 9.219.019-6.57-7.225 6.57-7.287h-9.076l-2.125 2.209-1.979-2.209h-19.526l-1.677 3.741-1.716-3.741h-7.824v1.704l-.87-1.704h-6.69zm1.517 2.058h3.822l4.344 9.828v-9.828h4.187l3.355 7.047 3.092-7.047h4.166v10.4h-2.535l-.021-8.149-3.695 8.149h-2.268l-3.716-8.149v8.149h-5.215l-.989-2.332h-5.341l-.986 2.329h-2.794l4.593-10.398zm35.592 0h-10.307v10.394h10.147l3.271-3.445 3.152 3.445h3.295l-4.79-5.167 4.79-5.227h-3.152l-3.254 3.405-3.152-3.405zm-33.733 1.76l-1.76 4.154h3.517l-1.758-4.154zm25.971 2.292v-1.9h6.431l2.806 3.036-2.931 3.053h-6.307v-2.073h5.623v-2.116h-5.623z" fill="#fff"/></svg>