<svg width="70" height="48" viewBox="0 0 70 48" xmlns="http://www.w3.org/2000/svg" fill="none"><rect x=".5" y=".5" width="69" height="47" rx="5.5" fill="#fff" stroke="#D9D9D9"/><path d="M52.619 14.74h-13.552l-1.378 1.554-4.473 5.041-1.378 1.553h-13.373l1.357-1.573.642-.745 1.357-1.573h-6.162c-1.126 0-2.047.946-2.047 2.101v4.434c0 1.156.921 2.102 2.047 2.102h23.591c1.126 0 2.664-.702 3.417-1.561l3.568-4.064 6.384-7.27z" fill="#005697"/><path d="M55.342 10c1.126 0 2.047.946 2.047 2.101v4.434c0 1.156-.921 2.102-2.047 2.102h-6.142l1.37-1.562.679-.774 1.37-1.561h-13.552l-7.229 8.155h-13.456l9.65-10.924.365-.414c.756-.856 2.296-1.557 3.422-1.557h23.523z" fill="#FBD500"/><path fill-rule="evenodd" clip-rule="evenodd" d="M18.224 35.172c0-.29-.068-.54-.204-.752-.136-.212-.316-.373-.538-.484.222-.111.395-.276.517-.493.122-.217.184-.462.184-.735v-.15c0-.334-.064-.612-.192-.835-.128-.223-.307-.401-.538-.535-.231-.134-.508-.23-.83-.288-.323-.058-.681-.087-1.076-.087l-.417.008-.421.021-.375.029-.28.033c-.161.028-.275.078-.342.15-.067.073-.1.203-.1.393v5.078c0 .189.035.32.104.392.069.072.188.122.354.15l.3.042.38.029.421.021.425.008c.361 0 .702-.028 1.022-.084.32-.056.598-.155.834-.297s.424-.334.563-.576c.139-.242.209-.547.209-.915v-.125zm-1.418-2.397l-.042.255c-.028.081-.074.15-.138.209-.064.058-.15.106-.259.142-.108.036-.246.054-.413.054h-.934v-1.445l.129-.004.184-.004h.321c.428 0 .727.054.897.163.169.109.254.277.254.505v.125zm-.213 3.032c.164-.128.246-.309.246-.543v-.092c0-.2-.064-.374-.192-.522-.128-.147-.359-.221-.692-.221h-.934v1.562h.146l.2.004.2.004h.138c.428 0 .724-.064.888-.192zm6.202-1.862c0-.306-.046-.567-.138-.781-.092-.214-.221-.39-.388-.526s-.371-.236-.613-.3-.513-.096-.813-.096c-.278 0-.549.02-.813.059-.264.039-.474.078-.63.117-.106.028-.159.089-.159.184v.676l.042.117.108.034h.042l.25-.021.338-.021.392-.013.405-.004c.195 0 .347.036.459.109.111.072.167.228.167.468v.301h-.45c-.718 0-1.239.113-1.564.338-.325.225-.488.583-.488 1.073v.075c0 .273.04.501.121.684.081.184.188.331.321.443.134.111.285.191.455.238.17.047.346.071.53.071.25 0 .466-.034.647-.1.181-.067.352-.159.513-.276v.134l.05.117.117.05h.934l.117-.05.05-.117v-2.981zm-1.648 2.15l.321-.129v-.919h-.476c-.145 0-.264.013-.359.038-.095.025-.17.063-.225.113-.056.05-.095.114-.117.192l-.033.267v.075c0 .178.043.292.129.342.086.05.218.075.396.075.128 0 .249-.018.363-.054zm6.753.823v-2.781c0-.261-.021-.508-.063-.739-.042-.231-.117-.431-.225-.601-.108-.17-.259-.305-.45-.405-.192-.1-.438-.15-.738-.15-.267 0-.503.032-.709.097-.206.065-.423.178-.651.341v-.202l-.05-.118-.117-.051h-.934l-.117.05-.05.117v4.443l.054.121.121.054h1.009l.117-.054.05-.121v-3.283c.145-.078.281-.142.409-.191.128-.05.253-.075.375-.075.128 0 .232.013.313.038.081.025.143.068.188.129.044.061.075.141.092.241l.025.367v2.775l.05.121.117.054h1.009l.121-.054.054-.121zm4.104-.81v.743l-.042.129-.134.063-.455.084c-.186.028-.405.042-.655.042-.589 0-1.061-.181-1.414-.543-.353-.362-.53-.885-.53-1.57v-.702c0-.685.177-1.208.53-1.57.353-.362.824-.543 1.414-.543.25 0 .469.014.655.042l.455.084.134.063.042.13v.743l-.046.104-.113.038h-.017l-.446-.042c-.142-.011-.332-.017-.571-.017-.095 0-.183.015-.267.046-.083.031-.156.084-.217.159s-.11.175-.146.301c-.036.125-.054.28-.054.464v.702c0 .184.018.338.054.463.036.125.085.226.146.301.061.075.133.128.217.159.084.031.172.046.267.046.239 0 .43-.005.571-.017l.446-.042h.017l.113.038.046.105zm4.63-1.696c0-.334-.046-.635-.138-.902-.092-.267-.226-.494-.401-.681-.175-.186-.393-.331-.652-.434-.259-.103-.559-.154-.899-.154-.34 0-.639.052-.898.154-.259.103-.478.248-.656.434-.178.187-.314.413-.405.681-.092.267-.138.568-.138.902v.585c0 .334.046.635.138.902.092.267.227.494.405.681.178.187.397.331.656.434.259.103.559.155.898.155.34 0 .639-.052.899-.155.259-.103.476-.248.652-.434.175-.187.309-.413.401-.681.092-.267.138-.568.138-.902v-.585zm-2.09 1.612c.492 0 .738-.342.738-1.027v-.585c0-.679-.246-1.019-.738-1.019-.243 0-.429.085-.556.255-.127.17-.191.425-.191.764v.585c0 .34.064.596.191.768.127.173.312.259.556.259zm7.053.894v-2.781c0-.261-.021-.508-.063-.739-.042-.231-.117-.431-.225-.601-.109-.17-.259-.305-.45-.405-.192-.1-.438-.15-.738-.15-.267 0-.503.032-.709.097-.206.065-.423.178-.651.341v-.202l-.05-.118-.117-.051h-.934l-.117.05-.05.117v4.443l.054.121.121.054h1.009l.117-.054.05-.121v-3.283c.144-.078.281-.142.409-.191.128-.05.253-.075.375-.075.128 0 .232.013.313.038.081.025.143.068.188.129.044.061.075.141.092.241l.025.367v2.775l.05.121.117.054h1.009l.121-.054.054-.121zm3.637-.628v.646c0 .094-.053.149-.159.165l-.334.05-.325.017c-.227 0-.427-.018-.601-.054-.174-.036-.319-.107-.435-.213-.116-.106-.204-.252-.265-.439-.061-.186-.091-.427-.091-.722v-2.422l-.667-.109-.121-.063-.054-.113v-.551l.054-.121.121-.054h.667v-.685l.05-.109.116-.058 1.011-.175h.025l.108.037.041.104v.885h.684l.117.05.05.118v.682l-.05.118-.117.05h-.684v2.43c0 .167.014.274.042.321.028.047.105.071.233.071h.409c.117 0 .175.047.175.141zm4.454-2.345c0-.306-.046-.567-.138-.781-.092-.214-.221-.39-.388-.526s-.371-.236-.613-.3-.513-.096-.813-.096c-.278 0-.549.02-.813.059-.264.039-.474.078-.63.117-.106.028-.158.089-.158.184v.676l.042.117.108.034h.042l.25-.021.338-.021.392-.013.405-.004c.195 0 .348.036.459.109.111.072.167.228.167.468v.301h-.45c-.718 0-1.239.113-1.564.338-.325.225-.488.583-.488 1.073v.075c0 .273.04.501.121.684.08.184.188.331.321.443.134.111.285.191.455.238.17.047.346.071.53.071.25 0 .466-.034.646-.1.181-.067.351-.159.513-.276v.134l.05.117.117.05h.934l.117-.05.05-.117v-2.981zm-1.647 2.15l.321-.129v-.919h-.475c-.145 0-.264.013-.359.038-.095.025-.17.063-.225.113-.056.05-.095.114-.117.192l-.033.267v.075c0 .178.043.292.129.342.086.05.218.075.396.075.128 0 .249-.018.363-.054zm5.752.756v-.743l-.046-.105-.113-.038h-.017l-.446.042c-.142.011-.332.017-.571.017-.095 0-.184-.015-.267-.046-.083-.031-.156-.084-.217-.159s-.11-.175-.146-.301c-.036-.125-.054-.28-.054-.463v-.702c0-.184.018-.338.054-.464.036-.125.085-.225.146-.301.061-.075.134-.128.217-.159.083-.031.172-.046.267-.046.239 0 .43.006.571.017l.446.042h.017l.113-.038.046-.104v-.743l-.042-.13-.133-.063-.455-.084c-.186-.028-.404-.042-.655-.042-.59 0-1.061.181-1.414.543-.353.362-.53.885-.53 1.57v.702c0 .685.176 1.208.53 1.57.353.362.824.543 1.414.543.25 0 .468-.014.655-.042l.455-.084.133-.063.042-.129zm3.595-.561v.646c0 .094-.053.149-.159.165l-.334.05-.325.017c-.227 0-.427-.018-.601-.054-.174-.036-.319-.107-.435-.213-.116-.106-.205-.252-.265-.439-.061-.186-.091-.427-.091-.722v-2.422l-.667-.109-.121-.063-.054-.113v-.551l.054-.121.121-.054h.667v-.685l.05-.109.116-.058 1.011-.175h.025l.108.037.042.104v.885h.684l.117.05.05.118v.682l-.05.118-.117.05h-.684v2.43c0 .167.014.274.042.321.028.047.105.071.233.071h.409c.117 0 .175.047.175.141z" fill="#005697"/></svg>