<svg width="70" height="48" viewBox="0 0 70 48" xmlns="http://www.w3.org/2000/svg" fill="none"><rect x=".5" y=".5" width="69" height="47" rx="5.5" fill="#fff" stroke="#D9D9D9"/><path d="M38.09 39c7.795.038 14.91-6.416 14.91-14.266 0-8.584-7.115-14.518-14.91-14.515h-6.709c-7.888-.003-14.381 5.933-14.381 14.515 0 7.852 6.493 14.304 14.381 14.266h6.709z" fill="#0079BE"/><path d="M31.413 11.408c-7.209.002-13.049 5.898-13.052 13.175.002 7.276 5.843 13.172 13.052 13.174 7.209-.002 13.052-5.898 13.053-13.174-.001-7.277-5.843-13.172-13.053-13.175zm-8.272 13.175c-.002-1.682.505-3.326 1.452-4.716.948-1.39 2.292-2.462 3.859-3.076v15.584c-1.567-.613-2.912-1.685-3.859-3.075-.948-1.39-1.454-3.034-1.452-4.716zm11.233 7.795v-15.588c1.568.613 2.914 1.685 3.862 3.076s1.454 3.035 1.452 4.719c.002 1.683-.505 3.328-1.453 4.718-.948 1.391-2.294 2.463-3.861 3.076z" fill="#fff"/><path d="M38.09 39c7.795.038 14.91-6.416 14.91-14.266 0-8.584-7.115-14.518-14.91-14.515h-6.709c-7.888-.003-14.381 5.933-14.381 14.515 0 7.852 6.493 14.304 14.381 14.266h6.709z" fill="#0079BE"/><path d="M31.413 11.408c-7.209.002-13.049 5.898-13.052 13.175.002 7.276 5.843 13.172 13.052 13.174 7.209-.002 13.052-5.898 13.053-13.174-.001-7.277-5.843-13.172-13.053-13.175zm-8.272 13.175c-.002-1.682.505-3.326 1.452-4.716.948-1.39 2.292-2.462 3.859-3.076v15.584c-1.567-.613-2.912-1.685-3.859-3.075-.948-1.39-1.454-3.034-1.452-4.716zm11.233 7.795v-15.588c1.568.613 2.914 1.685 3.862 3.076s1.454 3.035 1.452 4.719c.002 1.683-.505 3.328-1.453 4.718-.948 1.391-2.294 2.463-3.861 3.076z" fill="#fff"/></svg>