<svg width="268" height="209" xmlns="http://www.w3.org/2000/svg">
  <g filter="url(#Discover__filter0_d)">
    <rect x="40.98" y="40.972" width="185.432" height="126.682" rx="15.25" fill="#fff" stroke="#D9D9D9" stroke-width="1.5"/>
  </g>
  <path d="M118.26 167.445l107.778-31.667v16.667c0 8.284-6.716 15-15 15H118.26z" fill="#FD6020"/>
  <path fill-rule="evenodd" clip-rule="evenodd" d="M204.47 91.553c5.803 0 8.995 2.582 8.995 7.46a6.979 6.979 0 01-5.803 7.461l7.834 10.618h-6.093l-6.674-10.331h-.58v10.331h-4.933v-25.54h7.254zm-2.321 11.765h1.45c3.192 0 4.643-1.435 4.643-4.017 0-2.296-1.451-3.73-4.643-3.73h-1.45v7.747zm-22.053 13.773h13.928v-4.304h-8.995V105.9h8.705v-4.304h-8.705v-5.739h8.995v-4.304h-13.928v25.538zm-14.508-8.321l-6.673-17.217h-5.223l10.736 26.112h2.611l10.736-26.112h-5.223l-6.964 17.217zm-58.902-4.304c0 7.173 5.803 13.199 13.057 13.199 2.322 0 4.353-.573 6.384-1.434v-5.739c-1.451 1.721-3.482 2.869-5.803 2.869-4.643 0-8.415-3.443-8.415-8.034v-.574c-.29-4.592 3.482-8.609 8.124-8.896 2.322 0 4.643 1.148 6.094 2.87v-5.74c-1.741-1.147-4.062-1.434-6.094-1.434-7.544-.574-13.347 5.452-13.347 12.913zm-8.995-3.157c-2.902-1.148-3.772-1.721-3.772-3.156.29-1.722 1.74-3.157 3.482-2.87 1.45 0 2.901.861 4.062 2.009l2.612-3.444c-2.032-1.721-4.643-2.869-7.254-2.869-4.063-.287-7.545 2.87-7.835 6.887v.287c0 3.443 1.451 5.452 6.094 6.887 1.16.287 2.32.86 3.481 1.434.871.574 1.451 1.435 1.451 2.583 0 2.009-1.74 3.73-3.482 3.73h-.29c-2.321 0-4.352-1.434-5.223-3.443l-3.191 3.156c1.74 3.157 5.223 4.878 8.704 4.878 4.643.287 8.415-3.156 8.705-7.747v-.861c-.29-3.443-1.741-5.165-7.544-7.461zm-16.83 15.782h4.933V91.553h-4.932v25.538zM57.94 91.553h8.703c6.965.287 12.478 6.026 12.188 12.913 0 3.73-1.741 7.173-4.643 9.756-2.611 2.009-5.803 3.157-8.995 2.87H57.94v-25.54zm6.384 21.234c2.321.287 4.932-.574 6.673-2.008 1.741-1.722 2.612-4.018 2.612-6.6 0-2.296-.87-4.591-2.612-6.313-1.74-1.435-4.352-2.296-6.673-2.009h-1.451v16.93h1.45z"/>
  <path fill-rule="evenodd" clip-rule="evenodd" d="M140.925 90.96c-7.254 0-13.347 5.74-13.347 13.201 0 7.173 5.803 13.199 13.347 13.486 7.544.287 13.347-5.739 13.637-13.199-.29-7.461-6.093-13.487-13.637-13.487z" fill="#FD6020"/>
  <defs>
    <filter id="Discover__filter0_d" x=".23" y=".222" width="266.932" height="208.182" filterUnits="userSpaceOnUse" color-interpolation-filters="sRGB">
      <feFlood flood-opacity="0" result="BackgroundImageFix"/>
      <feColorMatrix in="SourceAlpha" values="0 0 0 0 0 0 0 0 0 0 0 0 0 0 0 0 0 0 127 0"/>
      <feOffset/>
      <feGaussianBlur stdDeviation="20"/>
      <feColorMatrix values="0 0 0 0 0 0 0 0 0 0 0 0 0 0 0 0 0 0 0.1 0"/>
      <feBlend in2="BackgroundImageFix" result="effect1_dropShadow"/>
      <feBlend in="SourceGraphic" in2="effect1_dropShadow" result="shape"/>
    </filter>
  </defs>
</svg>
