<svg width="70" height="48" viewBox="0 0 70 48" xmlns="http://www.w3.org/2000/svg" fill="none"><rect x=".5" y=".5" width="69" height="47" rx="5.5" fill="#fff" stroke="#D9D9D9"/><path d="M15.998 18.451c.602-.197 1.245-.304 1.915-.304 2.923 0 5.361 2.037 5.921 4.743l4.142-.828c-.95-4.599-5.094-8.06-10.063-8.06-1.138 0-2.233.182-3.255.517l1.34 3.934z" fill="#FECA2F"/><path d="M11.069 31.778l2.48-3.202c-1.107-1.12-1.806-2.755-1.806-4.577 0-1.821.698-3.456 1.805-4.575l-2.482-3.202c-1.881 1.902-3.066 4.681-3.066 7.776 0 3.097 1.187 5.877 3.069 7.779z" fill="#1BA7DE"/><path d="M23.835 25.111c-.561 2.705-2.998 4.74-5.918 4.74-.67 0-1.315-.107-1.917-.305l-1.341 3.936c1.024.337 2.119.519 3.258.519 4.964 0 9.105-3.459 10.059-8.056l-4.141-.833z" fill="#EC412A"/><path fill-rule="evenodd" clip-rule="evenodd" d="M47.905 16.222v11.381l2.042.819-.966 2.245-2.02-.812c-.454-.19-.761-.48-.995-.808-.224-.335-.39-.793-.39-1.412v-11.412h2.329zm-15.489 8.458c.051-3.254 2.822-5.852 6.185-5.802 2.854.043 5.219 1.977 5.841 4.548l-11.04 4.563c-.641-.948-1.006-2.088-.986-3.308zm2.526.456c-.015-.137-.026-.277-.022-.418.032-1.917 1.663-3.447 3.645-3.416 1.079.014 2.036.491 2.684 1.231l-6.307 2.603zm6.074 2.113c-.665.626-1.568 1.007-2.564.993-.683-.011-1.316-.209-1.853-.538l-1.334 2.055c.913.558 1.99.889 3.151.906 1.69.024 3.23-.618 4.35-1.678l-1.751-1.738zm15.389-5.947c-.398 0-.78.062-1.137.178l-.795-2.303c.607-.196 1.256-.302 1.932-.302 2.95 0 5.41 2.026 5.975 4.718l-2.46.485c-.331-1.584-1.779-2.776-3.515-2.776zm-4.039 7.884l1.662-1.818c-.742-.636-1.21-1.564-1.21-2.598 0-1.034.468-1.961 1.209-2.596l-1.663-1.818c-1.261 1.08-2.056 2.658-2.056 4.414 0 1.758.795 3.336 2.058 4.416zm4.039-.947c1.734 0 3.181-1.191 3.515-2.772l2.459.487c-.567 2.689-3.027 4.712-5.974 4.712-.676 0-1.327-.107-1.935-.303l.797-2.302c.358.116.74.179 1.138.179z"/></svg>