<svg width="34" height="24" xmlns="http://www.w3.org/2000/svg"><rect x=".5" y=".5" width="33" height="23" rx="3.5" fill="#fff" stroke="#D9D9D9"/><path fill="#fff" d="M6 5h22v14h-22z"/><path d="M28 5h-22v14h22v-14z" fill="#F37421"/><path d="M8.849 8.945v4.9h1.12v-2.05h1.838v2.05h1.115v-4.9h-1.115v1.885h-1.839v-1.885h-1.12zm13.713 3.475a2.67 2.67 0 .037-.437c0-.879-.44-1.775-1.597-1.775-1.243 0-1.808.997-1.808 1.898 0 1.112.697 1.812 1.913 1.812.482 0 .93-.073 1.297-.218l-.147-.748a3.163 3.163 0 1-.99.146c-.518 0-.973-.219-1.01-.675h2.305v-.003zm-2.316-.756c.029-.297.22-.72.689-.72.513 0 .629.451.629.72h-1.318zm2.708 2.181h1.114v-1.803l.023-.246c.073-.342.352-.56.761-.56l.3.028v-1.04l-.235-.013c-.344 0-.784.218-.967.733h-.028l-.037-.655h-.96c.015.305.03.647.03 1.17v2.386z" fill="#fff"/><path fill-rule="evenodd" clip-rule="evenodd" d="M14.053 8.75a.57.57 0 1.572.568.57.57h.57a1-.573-.568.57.57 0 1.573-.569z" fill="#FFE700"/><path fill-rule="evenodd" clip-rule="evenodd" d="M16.405 13.016h.558c.562 0 .816-.355.816-.728 0-.372-.029-1.212-.72-1.212-.795 0-.668 1.044-.663 1.59l.009.35zm-2.925-2.73h1.145v2.005c0 .373.209.728.669.728.002-.901 0-1.831-.031-2.733h.956l.056.521c.451-.896 1.876-.7 2.355.059.494.781.663 3.021-1.667 3.021h-.541l.005 1.367h-1.145l.006-1.367c-1.238-.005-1.808-.784-1.808-1.596v-2.005z" fill="#fff"/></svg>