<svg width="34" height="24" viewBox="0 0 34 24" xmlns="http://www.w3.org/2000/svg" fill="none"><rect x=".5" y=".5" width="33" height="23" rx="3.5" fill="#fff" stroke="#D9D9D9"/><path d="M21.982 11.954c.531.011 1.066-.024 1.595.018.536.1.665.911.189 1.177-.325.175-.711.065-1.063.096h-.721v-1.291zm1.902-1.461c.118.417-.284.791-.685.733h-1.217c.009-.393-.017-.819.012-1.191.488.014.98-.028 1.464.022.208.052.383.223.425.436zm2.929-6.178c.023.796.003 1.633.01 2.445-.001 3.3.003 6.601-.003 9.901-.021 1.237-1.117 2.312-2.346 2.336-1.23.005-2.459.001-3.689.002v-4.99c1.34-.007 2.68.014 4.02-.01.621-.039 1.302-.449 1.331-1.133.073-.687-.574-1.162-1.189-1.237-.236-.006-.229-.069 0-.096.586-.127 1.047-.733.874-1.341-.147-.639-.853-.886-1.441-.885-1.198-.008-2.396-.001-3.594-.004.008-.931-.016-1.864.013-2.795.095-1.215 1.219-2.216 2.43-2.194h3.585z" fill="url(#a)"/><path d="M7.247 6.635c.031-1.235 1.131-2.301 2.358-2.319 1.225-.004 2.45-.001 3.675-.002-.003 4.132.007 8.264-.005 12.396-.047 1.22-1.136 2.266-2.349 2.287-1.227.005-2.455.001-3.682.002v-5.158c1.192.282 2.442.402 3.659.215.727-.117 1.522-.474 1.769-1.228.181-.645.079-1.324.106-1.986v-1.538h-2.105c-.009 1.017.019 2.036-.015 3.052-.057.624-.675 1.021-1.264 1-.73.008-2.178-.529-2.178-.529-.004-1.905.021-4.292.032-6.191z" fill="url(#b)"/><path d="M14.065 9.924c-.111.024-.022-.377-.051-.529.008-.962-.016-1.924.013-2.885.095-1.22 1.227-2.224 2.443-2.195h3.581c-.003 4.132.007 8.264-.005 12.396-.047 1.22-1.136 2.265-2.35 2.287-1.227.005-2.455.001-3.682.002v-5.651c.838.688 1.978.795 3.022.797.787 0 1.57-.122 2.335-.303v-1.035c-.862.429-1.875.702-2.83.455-.666-.166-1.15-.81-1.139-1.497-.077-.715.342-1.47 1.045-1.683.872-.273 1.823-.064 2.641.291.175.092.353.205.283-.087v-.814c-1.368-.325-2.823-.445-4.197-.091-.398.112-.785.282-1.108.544z" fill="url(#c)"/><defs><linearGradient id="a" x1="20.744" y1="11.343" x2="26.784" y2="11.343" gradientUnits="userSpaceOnUse"><stop stop-color="#58B03A"/><stop offset="1" stop-color="#55B330"/></linearGradient><linearGradient id="b" x1="7.115" y1="11.798" x2="13.181" y2="11.798" gradientUnits="userSpaceOnUse"><stop stop-color="#0F6EB6"/><stop offset="1" stop-color="#006DBA"/></linearGradient><linearGradient id="c" x1="14.005" y1="11.485" x2="20.05" y2="11.485" gradientUnits="userSpaceOnUse"><stop stop-color="#DE0D3D"/><stop offset="1" stop-color="#E30138"/></linearGradient></defs></svg>