<svg width="70" height="48" viewBox="0 0 70 48" xmlns="http://www.w3.org/2000/svg" fill="none"><rect x=".5" y=".5" width="69" height="47" rx="5.5" fill="#fff" stroke="#D9D9D9"/><path d="M40.19 24.254c0 7.625-6.11 13.806-13.648 13.806-7.537 0-13.648-6.181-13.648-13.806 0-7.625 6.11-13.806 13.648-13.806 7.537 0 13.648 6.181 13.648 13.806z" fill="#ED0006"/><path d="M57.895 24.254c0 7.625-6.11 13.806-13.648 13.806-7.537 0-13.648-6.181-13.648-13.806 0-7.625 6.11-13.806 13.648-13.806 7.537 0 13.648 6.181 13.648 13.806z" fill="#0099DF"/><path fill-rule="evenodd" clip-rule="evenodd" d="M35.395 13.746c2.934 2.532 4.795 6.3 4.795 10.508 0 4.208-1.861 7.976-4.795 10.508-2.934-2.532-4.795-6.3-4.795-10.508 0-4.208 1.861-7.976 4.795-10.508z" fill="#6C6BBD"/></svg>