<svg width="70" height="48" viewBox="0 0 70 48" xmlns="http://www.w3.org/2000/svg" fill="none"><rect x=".5" y=".5" width="69" height="47" rx="5.5" fill="#fff" stroke="#D9D9D9"/><path fill-rule="evenodd" clip-rule="evenodd" d="M35.395 34.762c-2.383 2.057-5.474 3.298-8.852 3.298-7.537 0-13.648-6.181-13.648-13.806 0-7.625 6.11-13.806 13.648-13.806 3.378 0 6.469 1.241 8.852 3.298 2.383-2.057 5.475-3.298 8.852-3.298 7.537 0 13.648 6.181 13.648 13.806 0 7.625-6.11 13.806-13.648 13.806-3.378 0-6.469-1.242-8.852-3.298z" fill="#ED0006"/><path fill-rule="evenodd" clip-rule="evenodd" d="M35.395 34.762c2.934-2.532 4.795-6.3 4.795-10.508 0-4.208-1.861-7.976-4.795-10.508 2.383-2.057 5.475-3.298 8.852-3.298 7.537 0 13.648 6.181 13.648 13.806 0 7.625-6.11 13.806-13.648 13.806-3.378 0-6.469-1.242-8.852-3.298z" fill="#F9A000"/><path fill-rule="evenodd" clip-rule="evenodd" d="M35.395 13.746c2.934 2.532 4.795 6.3 4.795 10.508 0 4.208-1.861 7.976-4.795 10.508-2.934-2.532-4.795-6.3-4.795-10.508 0-4.208 1.861-7.976 4.795-10.508z" fill="#FF5E00"/></svg>