<svg width="34" height="24" viewBox="0 0 34 24" xmlns="http://www.w3.org/2000/svg" fill="none"><rect x=".5" y=".5" width="33" height="23" rx="3.5" fill="#fff" stroke="#D9D9D9"/><path d="M10.518 5.001h5.358c.748 0 1.213.628 1.039 1.4l-2.495 11.025c-.176.77-.925 1.398-1.673 1.398h-5.358c-.747 0-1.213-.628-1.039-1.398l2.496-11.025c.174-.773.923-1.4 1.672-1.4z" fill="#E21836"/><path d="M15.43 5h6.162c.748 0 .411.628.235 1.4l-2.494 11.025c-.175.77-.12 1.398-.87 1.398h-6.162c-.749 0-1.213-.628-1.037-1.398l2.494-11.025c.177-.773.924-1.4 1.672-1.4z" fill="#00447C"/><path d="M21.348 5h5.358c.749 0 1.214.628 1.038 1.4l-2.494 11.025c-.176.77-.925 1.398-1.674 1.398h-5.356c-.749 0-1.214-.628-1.039-1.398l2.495-11.025c.174-.773.922-1.4 1.672-1.4z" fill="#007B84"/><path d="M11.918 8.533c-.551.006-.714 0-.766-.013l-.393 1.865c-.08.357-.138.612-.336.776-.112.096-.244.142-.396.142-.244 0-.387-.125-.411-.362l-.005-.081.074-.481s.39-1.609.46-1.822l.006-.024c-.76.007-.894 0-.904-.013l-.024.117-.398 1.813-.034.154-.066.503c0 .149.028.271.085.374.182.326.699.375.992.375.377 0 .731-.083.971-.233.415-.253.524-.647.621-.998l.045-.18s.402-1.671.47-1.889l.007-.024zm1.368 1.348c-.097 0-.274.024-.433.104l-.17.101.052-.193-.028-.033c-.337.07-.413.08-.725.125l-.026.018c-.036.309-.068.541-.202 1.148l-.157.673.014.028c.319-.017.416-.017.694-.013l.023-.025.118-.606.151-.71.203-.066c.155 0 .137.14.131.195-.007.094-.063.399-.121.661l-.039.169-.084.37.012.025c.315-.017.411-.017.679-.013l.032-.025c.049-.29.063-.368.149-.791l.043-.194c.084-.38.127-.573.063-.73-.067-.176-.229-.219-.378-.219zm1.528.398l-.38.069-.369.056-.013.012-.012.01-.051.357-.096.491-.076.277-.084.273.01.015.008.014.352-.014.369.001.014-.012.015-.013.041-.254.099-.46.09-.396.093-.396-.005-.016-.006-.015zm.004-.537c-.152-.092-.419-.063-.598.065-.179.125-.199.303-.048.396.149.09.417.063.595-.066.179-.128.201-.304.051-.395zm.919 2.139c.308 0 .623-.087.86-.346.183-.21.266-.522.295-.651.095-.426.021-.626-.071-.747-.14-.185-.388-.244-.645-.244-.155 0-.523.016-.811.289-.207.197-.302.464-.36.72-.058.261-.125.731.295.906.13.057.316.073.437.073zm-.024-.96c.071-.323.155-.594.368-.594.167 0 .179.202.105.526-.013.072-.074.339-.157.453-.058.084-.126.135-.202.135-.023 0-.156 0-.158-.204l.043-.316zm1.948.918l.024-.025.115-.606.152-.711.204-.066c.154 0 .136.14.129.195-.006.094-.062.399-.121.661l-.037.169-.086.37.012.025c.316-.017.408-.017.678-.013l.033-.025c.047-.29.06-.368.149-.791l.042-.194c.085-.38.128-.573.065-.73-.069-.176-.232-.218-.379-.218-.097 0-.275.024-.433.104l-.169.101.048-.193-.026-.033c-.337.07-.414.08-.726.125l-.024.018c-.038.309-.068.541-.203 1.148l-.157.673.014.028c.32-.017.415-.017.692-.013zm2.32.013l.139-.691.107-.45.063-.063h.046c.439 0 .934 0 1.322-.294.264-.202.445-.499.525-.861l.036-.3c0-.139-.027-.276-.105-.383-.198-.285-.592-.29-1.047-.293l-.224.002c-.583.007-.816.005-.912-.007l-.023.121-.209.997-.523 2.217c.509-.006.717-.006.805.004zm.387-1.769l.221-.99.007-.051.003-.039.089.009.468.042c.181.072.255.257.203.499-.047.221-.187.407-.366.497-.147.076-.328.082-.514.082h-.12l.009-.05zm1.381.857c-.059.257-.126.727.292.895.133.058.253.076.374.069.128-.007.247-.073.357-.168l-.03.117.019.025c.3-.013.394-.013.719-.01l.029-.023c.048-.288.092-.567.216-1.117l.182-.787-.01-.029c-.336.064-.426.078-.749.125l-.024.021-.01.078c-.05-.084-.123-.155-.236-.2-.144-.058-.482.017-.772.289-.204.194-.302.46-.358.716zm.706.016c.072-.317.155-.585.369-.585.135 0 .207.129.192.348l-.039.178-.067.281-.079.165c-.055.08-.186.13-.262.13-.021 0-.153 0-.158-.201-.001-.1.019-.203.044-.316zm3.687-1.047l-.026-.031c-.333.069-.393.08-.698.123l-.023.023-.003.015-.001-.005c-.227.54-.221.424-.406.849l-.002-.052-.046-.922-.029-.031c-.348.069-.357.08-.678.123l-.025.023-.006.036.002.005.071.498.063.491.088.818c-.217.369-.269.509-.478.833l.002.003-.147.24-.054.05-.096.014h-.082l-.121.415.416.007c.244-.001.398-.119.481-.277l.262-.462h-.004l.028-.033c.176-.39 1.515-2.755 1.515-2.755zm-4.393 5.456h-.177l.654-2.225h.217l.069-.229.007.255c-.008.157.112.297.429.274h.366l.126-.428h-.138c-.079 0-.116-.021-.111-.065l-.007-.259h-.677v.001c-.219.005-.873.022-1.006.058-.16.042-.329.167-.329.167l.066-.229h-.634l-.132.455-.662 2.259h-.129l-.126.425h1.262l-.042.142h.622l.041-.142h.175l.137-.459zm-.518-1.773l-.29.117.168-.569h.504l-.122.414-.26.038zm.01.813l-.262.045-.295.133.174-.592h.506l-.122.414zm-.282.966h-.505l.146-.499h.503l-.145.499zm1.216-1.38h.728l-.105.349h-.738l-.111.381h.645l-.489.708-.099.085-.131.039h-.179l-.123.418h.468c.244 0 .387-.114.493-.264l.335-.472.072.479c.015.09.078.142.12.163l.164.072.162.006h.23l.138-.467h-.091l-.157-.026-.023-.1-.073-.48h-.299l.131-.161h.736l.113-.381h-.682l.106-.349h.679l.126-.43h-2.026l-.124.43zm-6.149 1.477l.17-.582h.698l.128-.433h-.699l.107-.358h.683l.127-.419h-1.709l-.124.419h.388l-.104.358h-.389l-.129.44h.388l-.226.77c-.03.102.014.141.043.188l.125.094.179.025h.787l.14-.479-.349.049c-.067 0-.254-.008-.234-.073zm.08-2.785l-.177.329-.103.137-.158.025h-.092l-.123.421h.307c.148 0 .261-.056.315-.084l.118-.058.104-.092h.958l.127-.438h-.701l.122-.239h-.696zm1.414 2.794l.02-.156.262-.892h.931l.297-.008c.069-.007.143-.033.224-.078.084-.047.127-.097.163-.155.04-.057.105-.182.161-.375l.329-1.129-.966.006s-.297.045-.428.095c-.132.056-.321.211-.321.211l.087-.309h-.597l-.836 2.853-.054.24c-.002.052.064.103.106.142l.195.039.327.009h.459l.141-.489-.411.04-.089-.045zm.451-1.65h.978l-.062.201-.129.002h-.847l.06-.203zm.196-.673h.986l-.071.242s-.465-.005-.539.009c-.328.058-.519.239-.519.239l.143-.489zm.742 1.545l-.039.062-.1.018h-.139l.008-.244h-.58l-.024 1.194c-.001.086.007.136.068.176.061.05.25.056.504.056h.363l.131-.447-.316.018-.105.006-.043-.028-.032-.091.003-.306.332-.014c.179 0 .256-.06.321-.117.062-.055.083-.118.106-.203l.056-.271h-.456l-.058.191z" fill="#FEFEFE"/></svg>