<svg width="16" height="16" viewBox="0 0 16 16" xmlns="http://www.w3.org/2000/svg" fill="none"><path fill-rule="evenodd" clip-rule="evenodd" d="M1.341 1.356c.219-.218.515-.341.824-.341.309 0 .605.123.824.341l5.003 5.003 5.003-5.003c.107-.111.236-.2.378-.261.142-.061.295-.093.45-.095.155-.001.308.028.451.087.143.059.273.145.383.255.11.109.196.24.255.383.059.143.088.297.087.451-.001.155-.034.308-.095.45-.061.142-.15.271-.261.378l-5.003 5.003 5.003 5.003c.212.22.33.514.327.82-.003.306-.125.598-.341.814-.216.216-.508.339-.814.341-.306.003-.6-.115-.82-.327l-5.003-5.004-5.003 5.004c-.22.212-.514.33-.82.327-.306-.003-.598-.125-.814-.341-.216-.216-.339-.508-.341-.814-.003-.306.115-.6.327-.82l5.003-5.003-5.003-5.003c-.218-.219-.341-.515-.341-.824 0-.309.123-.605.341-.824z" fill="#4B4B7C"/></svg>