<svg width="16" height="16" viewBox="0 0 16 16" fill="#4B4B7C" xmlns="http://www.w3.org/2000/svg"><path fill-rule="evenodd" clip-rule="evenodd" d="M11.146 2.146c-.094-.094-.221-.146-.354-.146h-1.7930000000000001c-.552 0-1 .448-1 1s.448 1 1 1h.5c.276 0 .5.224.5.5v3.6390000000000002c0 1.236-1.11 2.176-2.329 1.973l-.253-.042c-.241-.04-.418-.249-.418-.493v-1.076c0-.276-.224-.5-.5-.5h-4.293c-.133 0-.26.052-.351.149-1.19 1.265-1.856 2.938-1.856 4.68 0 .095.077.172.172.172h1.328c.276 0 .494.227.562.495.22.865 1.005 1.505 1.938 1.505.934 0 1.718-.64 1.938-1.505.068-.268.286-.495.562-.495h3c.276 0 .494.227.562.495.22.865 1.005 1.505 1.938 1.505.934 0 1.718-.64 1.938-1.505.068-.268.286-.495.562-.495h1c.276 0 .503-.225.47-.499-.19-1.583-1.276-2.937-2.816-3.45-.097-.032-.173-.108-.205-.205l-.812-2.435c-.079-.236.028-.494.251-.605l.371-.186c.611-.305.743-1.119.26-1.602l-1.873-1.872zm-8.646.854c-.276 0-.5.224-.5.5v3c0 .276.224.5.5.5h3c.276 0 .5-.224.5-.5v-3c0-.276-.224-.5-.5-.5h-3zm2.5 10c0 .552-.448 1-1 1s-1-.448-1-1 .448-1 1-1 1 .448 1 1zm7 1c.552 0 1-.448 1-1s-.448-1-1-1-1 .448-1 1 .448 1 1 1z"/></svg>