<svg width="16" height="16" viewBox="0 0 16 16" xmlns="http://www.w3.org/2000/svg" fill="none"><path d="M14.986 5.658c-.009.137-.052.269-.13.396-.077.127-.175.191-.294.191h-4.512c-.219.009-.324-.146-.314-.464l1.723-1.721c-.994-.874-2.146-1.311-3.459-1.311-.948 0-1.825.234-2.632.703-.807.469-1.445 1.106-1.914 1.912-.469.806-.704 1.685-.704 2.636 0 .952.235 1.828.704 2.629.469.801 1.107 1.436 1.914 1.905.807.469 1.684.703 2.632.703.802 0 1.556-.171 2.263-.512.443-.214.844-.479 1.203-.796.358-.316.895-.383 1.271-.089.387.302.454.868.1 1.208-.527.505-1.127.92-1.802 1.248-.948.46-1.96.69-3.035.69-.948 0-1.855-.184-2.721-.553-.866-.369-1.611-.865-2.235-1.489-.624-.624-1.121-1.368-1.49-2.233s-.554-1.771-.554-2.718c0-.947.185-1.851.554-2.711.369-.86.866-1.603 1.49-2.226.624-.624 1.369-1.12 2.235-1.489.866-.369 1.773-.553 2.721-.553.884 0 1.729.159 2.536.478.807.319 1.529.765 2.167 1.339l1.832-1.83c.319-.009.474.096.465.314l-.014 4.343z" fill="#4B4B7C"/></svg>