<svg width="52" height="51" viewBox="0 0 52 51" xmlns="http://www.w3.org/2000/svg" fill="#fff"><rect x=".5" width="51" height="51" rx="25.5" fill="#00A896"/><path fill-rule="evenodd" clip-rule="evenodd" d="M40.672 15.204c.41.411.641.967.641 1.548 0 .581-.231 1.137-.641 1.548l-17.516 17.516c-.411.41-.967.641-1.548.641-.581 0-1.137-.231-1.548-.641l-8.758-8.758c-.399-.413-.619-.966-.614-1.54.005-.574.235-1.123.641-1.529.406-.406.955-.636 1.529-.641.574-.005 1.127.216 1.54.615l7.21 7.21 15.968-15.968c.411-.41.967-.641 1.548-.641.581 0 1.137.231 1.548.641z" /></svg>