<svg width="68" height="67" viewBox="0 0 68 67" xmlns="http://www.w3.org/2000/svg" fill="#fff"><rect x=".5" width="67" height="67" rx="33.5" fill="#E3170A"/><path fill-rule="evenodd" clip-rule="evenodd" d="M19.434 18.966c.478-.478 1.127-.746 1.802-.746.676 0 1.324.268 1.803.746l10.945 10.945 10.945-10.945c.235-.244.517-.438.828-.571.311-.134.646-.204.984-.207.339-.003.674.062.988.19.313.128.598.317.837.557.239.239.429.524.557.837.128.313.193.649.19.988-.003.338-.073.673-.207.984-.134.311-.328.592-.571.828l-10.945 10.945 10.945 10.945c.464.481.721 1.125.716 1.793-.006.669-.274 1.308-.747 1.781-.473.473-1.112.741-1.781.747-.668.006-1.312-.251-1.793-.716l-10.945-10.945-10.945 10.945c-.481.464-1.125.721-1.793.716-.668-.006-1.308-.274-1.781-.747-.473-.473-.741-1.112-.747-1.781-.006-.668.251-1.312.716-1.793l10.945-10.945-10.945-10.945c-.478-.478-.746-1.127-.746-1.803 0-.676.268-1.324.746-1.802z" /></svg>