<svg width="156" height="24" viewBox="0 0 156 24" xmlns="http://www.w3.org/2000/svg" fill="none"><path d="M12 0c-.397 0-.789.019-1.176.057-.2.019-.346.197-.327.397l-.005.006-.023.003-.006-.005c-.033-.198-.22-.333-.418-.3-.522.086-1.032.205-1.529.355-.192.058-.301.261-.243.453l-.004.007c-.491.166-.968.364-1.427.592l-.008-.003c-.095-.177-.315-.244-.492-.149-.231.124-.458.255-.68.393-.17.106-.223.33-.116.501l-.002.008c-.218.145-.43.298-.637.457l-.008-.001c-.127-.155-.357-.178-.512-.05-.607.499-1.164 1.056-1.663 1.663-.127.155-.105.384.05.512l.001.008-.014.018-.008.001c-.163-.117-.39-.08-.507.083-.305.424-.582.869-.83 1.332-.095.177-.028.397.149.492l.003.008c-.228.459-.426.936-.592 1.427l-.007.004c-.192-.058-.395.05-.453.243-.076.25-.143.503-.203.759-.045.196.076.391.272.436l.004.007c-.051.255-.093.514-.127.774l-.006.005c-.2-.019-.378.127-.397.327-.038.387-.057.779-.057 1.176 0 .397.019.789.057 1.176.019.2.197.346.397.327l.006.005.003.023-.005.006c-.198.033-.333.22-.3.418.086.522.205 1.032.355 1.529.058.192.261.301.453.243l.007.004c.166.491.364.968.592 1.427l-.003.008c-.177.095-.244.315-.149.492.124.231.255.458.393.68.106.17.33.223.501.116l.008.002c.145.218.298.43.457.637l-.001.008c-.155.128-.178.357-.05.512.499.607 1.056 1.165 1.663 1.663.155.128.384.105.512-.05l.008-.001.018.014.001.008c-.117.163-.08.39.083.508.424.305.869.582 1.332.83.177.095.397.028.492-.149l.008-.003c.459.228.936.426 1.427.592l.004.007c-.058.192.05.395.243.454.25.076.503.143.759.203.196.045.391-.076.436-.272l.007-.005c.255.051.514.093.774.127l.005.006c-.019.2.127.378.327.397.387.038.779.057 1.176.057.397 0 .789-.019 1.176-.057.2-.02.346-.197.327-.397l.005-.006.023-.003.006.005c.033.198.22.332.418.3.522-.086 1.032-.205 1.529-.355.192-.058.301-.261.243-.454l.004-.007c.491-.166.968-.364 1.427-.592l.008.003c.095.177.315.244.492.149.231-.124.458-.255.68-.393.17-.106.223-.331.116-.501l.002-.008c.218-.146.43-.298.637-.457l.008.001c.128.155.357.178.512.05.607-.499 1.165-1.056 1.663-1.663.128-.155.105-.384-.05-.512l-.001-.008.014-.018.008-.001c.163.117.39.08.508-.083.305-.424.582-.869.83-1.332.095-.177.028-.397-.149-.492l-.003-.008c.228-.459.426-.936.592-1.427l.007-.004c.192.058.395-.05.454-.243.076-.25.143-.503.203-.759.045-.196-.076-.391-.272-.436l-.005-.007c.051-.255.093-.514.127-.775l.006-.005c.2.019.378-.127.397-.327.038-.387.057-.779.057-1.176 0-.397-.019-.789-.057-1.176-.02-.2-.197-.346-.397-.327l-.006-.005-.003-.023.005-.006c.198-.033.332-.22.3-.418-.086-.522-.205-1.032-.355-1.529-.058-.192-.261-.301-.454-.243l-.007-.004c-.166-.491-.364-.968-.592-1.427l.003-.008c.177-.095.244-.315.149-.492-.124-.231-.255-.458-.393-.68-.106-.17-.331-.223-.501-.116l-.008-.002c-.146-.218-.298-.43-.457-.637l.001-.008c.155-.127.178-.357.05-.512-.499-.607-1.056-1.164-1.663-1.663-.155-.127-.384-.105-.512.05l-.008.001-.018-.014-.001-.008c.117-.163.08-.39-.083-.507-.424-.305-.869-.582-1.332-.83-.177-.095-.397-.028-.492.149l-.008.003c-.459-.228-.936-.426-1.427-.592l-.004-.007c.058-.192-.05-.395-.243-.453-.25-.076-.503-.143-.759-.203-.196-.045-.391.076-.436.272l-.007.004c-.255-.051-.514-.093-.775-.127l-.005-.006c.019-.2-.127-.378-.327-.397-.387-.038-.779-.057-1.176-.057z" fill="#FFC680"/><path d="M12 1.5c-.347 0-.691.017-1.029.05-.175.017-.303.173-.286.348l-.004.006-.02.003-.006-.004c-.028-.173-.192-.291-.366-.263-.457.075-.903.179-1.338.311-.168.051-.263.229-.212.397l-.003.006c-.43.145-.847.319-1.249.518l-.007-.002c-.083-.155-.276-.213-.431-.13-.202.108-.401.223-.595.344-.149.093-.195.289-.102.438l-.001.007c-.191.127-.377.261-.558.4l-.007-.001c-.112-.136-.312-.155-.448-.044-.531.437-1.019.924-1.455 1.455-.112.136-.092.336.044.448l.001.007-.012.016-.007.001c-.143-.102-.342-.07-.444.073-.266.371-.509.761-.726 1.166-.083.155-.025.348.13.431l.002.007c-.199.402-.372.819-.518 1.249l-.006.003c-.168-.051-.346.044-.397.212-.066.218-.125.44-.177.664-.04.171.067.342.238.382l.004.006c-.044.223-.082.449-.111.678l-.006.004c-.175-.017-.33.111-.348.286-.033.339-.05.682-.05 1.029 0 .347.017.691.05 1.029.017.175.173.303.348.286l.006.004.003.02-.004.006c-.173.028-.291.192-.263.366.075.457.179.903.311 1.338.051.168.229.263.397.212l.006.003c.145.43.319.847.518 1.249l-.002.007c-.155.083-.213.276-.13.431.108.202.223.401.344.595.093.149.289.195.438.102l.007.001c.127.191.261.377.4.558l-.001.007c-.136.112-.155.312-.044.448.437.531.924 1.019 1.455 1.455.136.112.336.092.448-.044l.007-.001.016.012.001.007c-.102.143-.07.341.073.444.371.267.761.509 1.166.727.155.083.348.025.431-.13l.007-.002c.402.199.819.372 1.249.518l.003.006c-.051.168.044.346.212.397.218.066.44.125.664.178.171.04.342-.067.382-.238l.006-.004c.223.044.449.082.678.111l.004.006c-.017.175.111.331.286.348.339.033.682.05 1.029.05.347 0 .691-.017 1.029-.05.175-.017.303-.173.286-.348l.004-.006.02-.003.006.004c.028.174.192.291.366.263.457-.075.903-.179 1.338-.311.168-.051.263-.229.212-.397l.003-.006c.43-.146.847-.319 1.249-.518l.007.002c.083.155.276.213.431.13.202-.108.401-.223.595-.344.149-.093.195-.289.102-.438l.001-.007c.191-.127.377-.261.558-.4l.007.001c.112.136.312.155.448.044.531-.437 1.019-.924 1.455-1.455.112-.136.092-.336-.044-.448l-.001-.007.012-.016.007-.001c.143.103.341.07.444-.073.267-.371.509-.761.727-1.166.083-.155.025-.348-.13-.431l-.002-.007c.199-.402.372-.819.518-1.249l.006-.003c.168.051.346-.044.397-.212.066-.218.125-.44.178-.664.04-.171-.067-.342-.238-.382l-.004-.006c.044-.223.082-.449.111-.678l.006-.004c.175.017.331-.111.348-.286.033-.339.05-.682.05-1.029 0-.347-.017-.691-.05-1.029-.017-.175-.173-.303-.348-.286l-.006-.004-.003-.02.004-.006c.174-.028.291-.192.263-.366-.075-.457-.179-.903-.311-1.338-.051-.168-.229-.263-.397-.212l-.006-.003c-.146-.43-.319-.847-.518-1.249l.002-.007c.155-.083.213-.276.13-.431-.108-.202-.223-.401-.344-.595-.093-.149-.289-.195-.438-.102l-.007-.001c-.127-.191-.261-.377-.4-.558l.001-.007c.136-.112.155-.312.044-.448-.437-.531-.924-1.019-1.455-1.455-.136-.112-.336-.092-.448.044l-.007.001-.016-.012-.001-.007c.103-.143.07-.342-.073-.444-.371-.266-.761-.509-1.166-.726-.155-.083-.348-.025-.431.13l-.007.002c-.402-.199-.819-.372-1.249-.518l-.003-.006c.051-.168-.044-.346-.212-.397-.218-.066-.44-.125-.664-.177-.171-.04-.342.067-.382.238l-.006.004c-.223-.044-.449-.082-.678-.111l-.004-.006c.017-.175-.111-.33-.286-.348-.339-.033-.682-.05-1.029-.05z" fill="#F79D5C"/><path d="M6.375 6l-.184.009-.051.062-.001.001h-.004l-.001-.001-.065-.047-.239.056-.038.071-.001.001-.223.092h-.001l-.077-.023-.106.061-.018.078v.001l-.1.071h-.001l-.08-.008c-.095.078-.182.165-.26.26l.008.08v.001l-.002.003h-.001l-.079.013-.13.208.023.077v.001l-.092.223-.001.001-.071.038-.032.119.042.068.001.001-.02.121-.001.001-.062.051-.009.184.009.184.062.051.001.001v.004l-.001.001-.047.065.056.239.071.038.001.001.092.223v.001l-.023.077.061.106.078.018h.001l.071.1v.001l-.008.08c.078.095.165.182.26.26l.08-.008h.001l.003.002v.001l.013.079.208.13.077-.023h.001l.223.092.001.001.038.071.119.032.068-.042.001-.001.121.02.001.001.051.062.184.009.184-.009.051-.062.001-.001h.004l.001.001.065.047.239-.056.038-.071.001-.001.223-.092h.001l.077.023.106-.061.018-.078v-.001l.1-.071h.001l.08.008c.095-.078.182-.165.26-.26l-.008-.08v-.001l.002-.003h.001l.079-.013.13-.208-.023-.077v-.001l.092-.223.001-.001.071-.038.032-.119-.042-.068-.001-.001.02-.121.001-.001.062-.051.009-.184-.009-.184-.062-.051-.001-.001v-.004l.001-.001.047-.065-.056-.239-.071-.038-.001-.001-.092-.223v-.001l.023-.077-.061-.106-.078-.018h-.001l-.071-.1v-.001l.008-.08c-.078-.095-.165-.182-.26-.26l-.08.008h-.001l-.003-.002v-.001l-.013-.079-.208-.13-.077.023h-.001l-.223-.092-.001-.001-.038-.071-.119-.032-.068.042-.001.001-.121-.02-.001-.001-.051-.062-.184-.009zM8.625 16.5l-.184.009-.051.062-.001.001h-.004l-.001-.001-.065-.047-.239.056-.038.071-.001.001-.223.092h-.001l-.077-.023-.106.061-.018.078v.001l-.1.071h-.001l-.08-.008c-.095.078-.182.165-.26.26l.008.08v.001l-.002.003h-.001l-.079.013-.13.208.023.077v.001l-.092.223-.001.001-.071.038-.032.119.042.068.001.001-.02.121-.001.001-.062.051-.009.184.009.184.062.051.001.001v.004l-.001.001-.047.065.056.239.071.038.001.001.092.223v.001l-.023.077.061.106.078.018h.001l.071.1v.001l-.008.08c.078.095.165.182.26.26l.08-.008h.001l.003.002v.001l.013.079.208.13.077-.023h.001l.223.092.001.001.038.071.119.032.068-.043.001-.001.121.02.001.001.051.062.184.009.184-.009.051-.062.001-.001h.004l.001.001.065.047.239-.056.038-.071.001-.001.223-.092h.001l.077.023.106-.061.018-.078v-.001l.1-.071h.001l.08.008c.095-.078.182-.165.26-.26l-.008-.08v-.001l.002-.003h.001l.079-.013.13-.208-.023-.077v-.001l.092-.223.001-.001.071-.038.032-.119-.043-.068-.001-.001.02-.121.001-.001.062-.051.009-.184-.009-.184-.062-.051-.001-.001-.001-.004.001-.001.047-.065-.055-.239-.071-.038-.001-.001-.092-.223v-.001l.023-.077-.062-.106-.078-.018h-.001l-.072-.1v-.001l.008-.08c-.078-.095-.165-.182-.26-.26l-.08.008h-.001l-.003-.002v-.001l-.013-.079-.208-.13-.077.023h-.001l-.223-.092-.001-.001-.038-.071-.119-.032-.068.043-.001.001-.121-.02-.001-.001-.051-.062-.184-.009zM14.625 7.5l-.184.009-.051.062-.001.001h-.004l-.001-.001-.065-.047-.239.056-.038.071-.001.001-.223.092h-.001l-.077-.023-.106.061-.018.078v.001l-.1.071h-.001l-.08-.008c-.095.078-.182.165-.26.26l.008.08v.001l-.002.003h-.001l-.079.013-.13.208.023.077v.001l-.092.223-.001.001-.071.038-.032.119.043.068.001.001-.02.121-.001.001-.062.051-.009.184.009.184.062.051.001.001.001.004-.001.001-.047.065.055.239.071.038.001.001.092.223v.001l-.023.077.062.106.078.018h.001l.072.1v.001l-.008.08c.078.095.165.182.26.26l.08-.008h.001l.003.002v.001l.013.079.208.13.077-.023h.001l.223.092.001.001.038.071.118.032.068-.043.001-.001.121.02.001.001.051.062.184.009.184-.009.051-.062.001-.001.004-.001.001.001.065.047.239-.055.038-.071.001-.001.223-.092h.001l.077.023.106-.062.018-.078v-.001l.1-.072h.001l.08.008c.095-.078.182-.165.26-.26l-.008-.08v-.001l.002-.003h.001l.079-.013.13-.208-.023-.077v-.001l.092-.223.001-.001.071-.038.032-.119-.043-.068-.001-.001.02-.121.001-.001.062-.051.009-.184-.009-.184-.062-.051-.001-.001v-.004l.001-.001.047-.065-.056-.239-.071-.038-.001-.001-.092-.223v-.001l.023-.077-.061-.106-.078-.018h-.001l-.071-.1v-.001l.008-.08c-.078-.095-.165-.182-.26-.26l-.08.008h-.001l-.003-.002v-.001l-.013-.079-.208-.13-.077.023h-.001l-.223-.092-.001-.001-.038-.071-.118-.032-.068.042-.001.001-.121-.02-.001-.001-.051-.062-.184-.009z" fill="#F3752B"/><path fill-rule="evenodd" clip-rule="evenodd" d="M.182 13.756c.047-.111.148-.197.277-.218l.005-.006-.003-.023-.006-.005c-.2.019-.378-.127-.397-.327l-.011-.12c.081-.471.491-.829.985-.829h1.875c.169 0 .329.042.469.116.14-.074.299-.116.469-.116h2.812c.43 0 .796.271.938.651.098-.263.304-.474.564-.579-.131-.034-.258-.095-.371-.184-.434-.342-.508-.971-.166-1.404l1.156-1.464c.104-.132.235-.231.379-.295.029-.155.094-.305.198-.437l1.733-2.196c.263-.333.696-.454 1.079-.337-.204-.345-.187-.794.077-1.128l.578-.732c.342-.434.971-.508 1.404-.166.434.342.508.971.166 1.404l-.578.732c-.263.333-.696.454-1.079.337.204.345.187.794-.076 1.128l-1.733 2.196c-.104.132-.235.231-.379.295-.028.155-.094.305-.199.438l-1.155 1.464c-.095.121-.213.214-.342.277h.62c.552 0 1 .448 1 1s-.448 1-1 1h-.938c-.377 0-.705-.208-.876-.516-.029.154-.094.304-.198.435l-.578.732c-.263.334-.696.454-1.079.337.204.345.187.794-.077 1.128l-1.733 2.196c-.104.132-.235.231-.379.295-.029.155-.094.305-.198.437l-.472.599-.217-.257c-.127-.155-.105-.384.05-.512l.001-.008c-.159-.207-.312-.419-.457-.637l-.008-.002c-.17.106-.395.054-.501-.116l-.09-.147.125-.159c.104-.132.235-.231.379-.295.029-.155.094-.305.198-.437l1.733-2.197c.263-.333.696-.454 1.079-.337-.097-.164-.144-.352-.138-.54h-1.252c-.169 0-.329-.042-.469-.117-.14.074-.299.117-.469.117h-1.875c-.358 0-.673-.188-.849-.472zm18.326 8.161c-.01.109-.07.212-.17.275-.222.138-.449.269-.68.393-.177.095-.397.028-.492-.149l-.008-.003-.197.095c.058-.272.227-.503.457-.643-.288-.176-.48-.492-.48-.854v-2.563c0-.153.034-.298.096-.427-.061-.13-.096-.274-.096-.427v-1.708c0-.552.448-1 1-1s1 .448 1 1v1.708c0 .153-.034.297-.096.427.061.13.096.274.096.427v2.563c0 .127-.024.248-.067.36l-.416.291-.002.008.054.163-.049.032.048.031zm5.49-9.69c-.006.319-.024.636-.055.949-.019.2-.197.346-.397.327l-.006.005c-.031.24-.07.478-.115.714-.502-.053-.893-.478-.893-.994 0-.552.448-1 1-1h.467zm-5.059-10.019v.885c0 .552-.448 1-1 1s-1-.448-1-1v-.854l.007-.117-.822 1.041c-.342.434-.971.508-1.404.166-.434-.342-.508-.971-.166-1.404l1.059-1.342c.108.091.158.24.114.384l.004.007c.491.166.968.364 1.427.592l.008-.003c.095-.177.315-.244.492-.149.444.238.872.503 1.28.793zm0 3.448c0-.552-.448-1-1-1s-1 .448-1 1v1.708c0 .153.034.298.096.427-.061.13-.096.274-.096.427v2.563c0 .362.192.678.48.854-.216.132-.377.342-.445.592h-1.88c-.169 0-.329.042-.469.116-.14-.074-.299-.116-.469-.116h-1.875c-.552 0-1 .448-1 1s.448 1 1 1h1.875c.169 0 .329-.042.469-.117.14.074.299.117.469.117h2.376c.14.074.299.117.469.117.438 0 .81-.282.945-.674.163.33.504.557.897.557h.938c.552 0 1-.448 1-1s-.448-1-1-1h-.938c-.354 0-.665.184-.842.461v-.198c0-.362-.192-.679-.48-.854.288-.176.48-.492.48-.854v-2.563c0-.153-.034-.298-.096-.427.061-.13.096-.274.096-.427v-1.708z" fill="#fff"/><path d="M11.25 3c0 1.657-1.343 3-3 3 0-1.657 1.343-3 3-3z" fill="#00A896"/><path fill-rule="evenodd" clip-rule="evenodd" d="M10.449 2.662c.069-.061.156-.104.254-.12.179-.028.361-.043.547-.043.276 0 .5.224.5.5 0 .186-.014.369-.043.547-.038.24-.24.413-.475.422.184.145.247.404.136.62-.084.164-.18.32-.287.468-.143.196-.402.258-.614.16.098.212.037.471-.16.614-.294.214-.622.383-.976.498-.094.031-.191.032-.281.008-.069.061-.156.104-.254.12-.179.028-.361.043-.547.043-.276 0-.5-.224-.5-.5 0-.186.015-.369.043-.547.038-.24.241-.413.475-.422-.184-.145-.247-.404-.136-.62.084-.164.18-.32.287-.468.143-.196.402-.258.614-.16-.098-.212-.037-.471.16-.614.294-.214.622-.383.976-.498.094-.031.191-.032.281-.008zm-1.172 1.364c.073.159.061.352-.05.504-.077.106-.146.217-.205.334-.085.167-.251.265-.426.272.102.08.17.199.187.33l.063.012.177-.101c.252-.082.486-.203.696-.355.152-.11.345-.123.504-.05-.073-.159-.061-.352.05-.504.077-.106.146-.217.205-.334.085-.167.251-.265.426-.272-.102-.08-.17-.199-.187-.33l-.063-.012-.177.101c-.252.082-.486.203-.696.355-.152.11-.345.123-.504.05z" fill="#00A896"/><path d="M11.25 15.75c1.657 0 3 1.343 3 3-1.657 0-3-1.343-3-3z" fill="#00A896"/><path fill-rule="evenodd" clip-rule="evenodd" d="M10.912 16.551c-.061-.069-.104-.156-.12-.254-.028-.179-.043-.361-.043-.547 0-.276.224-.5.5-.5.186 0 .368.014.547.043.24.038.413.24.422.475.145-.184.404-.247.62-.136.164.084.32.18.468.287.196.143.258.402.16.614.212-.098.471-.037.614.16.214.294.383.622.498.976.031.094.032.191.008.281.061.069.104.156.12.254.028.179.043.361.043.547 0 .276-.224.5-.5.5-.186 0-.368-.015-.547-.043-.24-.038-.413-.241-.422-.475-.145.184-.404.247-.62.136-.164-.084-.32-.18-.468-.287-.196-.143-.258-.402-.16-.614-.212.098-.471.037-.614-.16-.214-.294-.383-.622-.498-.976-.031-.094-.032-.191-.008-.281zm1.364 1.172c.159-.073.352-.061.504.05.106.077.217.146.334.205.167.085.265.251.272.426.08-.102.199-.17.33-.187l.012-.063-.101-.177c-.082-.252-.202-.486-.355-.696-.111-.152-.123-.345-.05-.504-.159.073-.352.061-.504-.05-.106-.077-.217-.146-.334-.205-.167-.085-.265-.251-.272-.426-.08.102-.199.17-.33.187l-.012.063.101.177c.082.252.202.486.355.696.111.152.123.345.05.504z" fill="#00A896"/><path d="M37.4 13.57c-1.627 0-2.44.5-2.44 1.5 0 .36.107.647.32.86.213.2.5.3.86.3.64 0 1.16-.2 1.56-.6.4-.413.6-.96.6-1.64v-.24c0-.12-.06-.18-.18-.18h-.72zm-2.24 4.96c-.92 0-1.68-.293-2.28-.88-.587-.6-.88-1.373-.88-2.32 0-2.427 1.8-3.64 5.4-3.64h.72c.12 0 .18-.053.18-.16v-.1c0-.507-.133-.873-.4-1.1-.253-.227-.687-.34-1.3-.34-.813 0-1.787.127-2.92.38-.28.053-.533-.007-.76-.18-.213-.173-.32-.4-.32-.68v-.04c0-.333.1-.633.3-.9.213-.28.48-.447.8-.5 1.173-.227 2.187-.34 3.04-.34 1.747 0 2.98.313 3.7.94.733.627 1.1 1.667 1.1 3.12v5.4c0 .307-.113.573-.34.8-.227.227-.493.34-.8.34h-.74c-.32 0-.593-.107-.82-.32-.227-.227-.347-.5-.36-.82v-.22l-.02-.02-.04.02c-.84 1.04-1.927 1.56-3.26 1.56zM47.242 11.89v2.48c0 .44.2.847.6 1.22.413.36.88.54 1.4.54.613 0 1.1-.247 1.46-.74.36-.507.54-1.26.54-2.26 0-2-.667-3-2-3-.52 0-.987.187-1.4.56-.4.36-.6.76-.6 1.2zm-2.02 10.84c-.307 0-.573-.113-.8-.34-.227-.227-.34-.493-.34-.8v-12.52c0-.307.113-.573.34-.8.227-.227.493-.34.8-.34h.8c.32 0 .593.113.82.34.227.213.347.48.36.8v.16l.02.02.04-.04c.853-.987 1.88-1.48 3.08-1.48 1.24 0 2.227.467 2.96 1.4.747.933 1.12 2.267 1.12 4 0 1.68-.387 3-1.16 3.96-.76.96-1.733 1.44-2.92 1.44-1.107 0-2.093-.407-2.96-1.22l-.04-.02-.02.02v4.28c0 .307-.113.573-.34.8-.227.227-.493.34-.8.34h-.96zM57.005 10.37c-.307 0-.573-.113-.8-.34-.227-.227-.34-.493-.34-.8v-.16c0-.307.113-.573.34-.8.227-.227.493-.34.8-.34h7.24c.307 0 .573.113.8.34.227.227.34.493.34.8v.16c0 .307-.113.573-.34.8-.227.227-.493.34-.8.34h-1.78c-.107 0-.16.06-.16.18v6.64c0 .307-.113.573-.34.8-.227.227-.493.34-.8.34h-1.08c-.307 0-.573-.113-.8-.34-.227-.227-.34-.493-.34-.8v-6.64c0-.12-.053-.18-.16-.18h-1.78zM71.882 9.91c-.6 0-1.053.16-1.36.48-.307.307-.5.84-.58 1.6 0 .107.047.16.14.16h3.38c.12 0 .18-.06.18-.18-.053-1.373-.64-2.06-1.76-2.06zm.5 8.62c-1.813 0-3.213-.46-4.2-1.38-.973-.92-1.46-2.26-1.46-4.02 0-1.747.433-3.08 1.3-4 .88-.933 2.147-1.4 3.8-1.4 3.173 0 4.787 1.733 4.84 5.2 0 .32-.127.593-.38.82-.24.213-.52.32-.84.32h-5.34c-.133 0-.187.06-.16.18.107.733.387 1.26.84 1.58.467.307 1.16.46 2.08.46.6 0 1.247-.087 1.94-.26.28-.067.527-.013.74.16.227.173.34.4.34.68v.04c0 .333-.107.64-.32.92-.2.267-.46.427-.78.48-.773.147-1.573.22-2.4.22zm1.98-15.26c.307 0 .567.113.78.34.227.213.34.473.34.78v.74c0 .307-.113.573-.34.8-.213.227-.473.34-.78.34h-.68c-.307 0-.573-.113-.8-.34-.213-.227-.32-.493-.32-.8v-.74c0-.307.107-.567.32-.78.227-.227.493-.34.8-.34h.68zm-5.08 0h.68c.307 0 .567.113.78.34.227.213.34.473.34.78v.74c0 .307-.113.573-.34.8-.213.227-.473.34-.78.34h-.68c-.307 0-.573-.113-.8-.34-.213-.227-.32-.493-.32-.8v-.74c0-.307.107-.567.32-.78.227-.227.493-.34.8-.34zM79.831 18.33c-.307 0-.573-.113-.8-.34-.213-.227-.32-.493-.32-.8v-8.12c0-.307.107-.573.32-.8.227-.227.493-.34.8-.34h1.06c.333 0 .647.1.94.3.293.187.513.433.66.74l2.06 4.72.04.02.02-.02 2.08-4.72c.147-.307.36-.553.64-.74.293-.2.607-.3.94-.3h1.12c.307 0 .567.113.78.34.227.227.34.493.34.8v8.12c0 .307-.113.573-.34.8-.213.227-.473.34-.78.34h-.92c-.307 0-.573-.113-.8-.34-.213-.227-.32-.493-.32-.8v-4.88l-.02-.02-.02.02-1.1 2.6c-.133.32-.347.573-.64.76-.28.187-.593.28-.94.28h-.1c-.347 0-.667-.093-.96-.28-.28-.187-.487-.44-.62-.76l-1.1-2.6-.02-.02-.02.02v4.88c0 .307-.113.573-.34.8-.213.227-.473.34-.78.34h-.86z" fill="#00A896"/><path d="M96.14 18.32c-.307 0-.573-.113-.8-.34-.227-.227-.34-.493-.34-.8v-8.12c0-.307.113-.573.34-.8.227-.227.493-.34.8-.34h7.2c.307 0 .573.113.8.34.227.227.34.493.34.8v8.12c0 .307-.113.573-.34.8-.227.227-.493.34-.8.34h-1c-.307 0-.573-.113-.8-.34-.227-.227-.34-.493-.34-.8v-6.74c0-.107-.053-.16-.16-.16h-2.6c-.107 0-.16.053-.16.16v6.74c0 .307-.113.573-.34.8-.227.227-.493.34-.8.34h-1zM108.269 18.32c-.307 0-.573-.113-.8-.34-.227-.227-.34-.493-.34-.8v-8.12c0-.307.113-.573.34-.8.227-.227.493-.34.8-.34h.94c.307 0 .573.113.8.34.227.227.34.493.34.8v4.84h.04l2.46-4.96c.333-.68.88-1.02 1.64-1.02h.98c.307 0 .573.113.8.34.227.227.34.493.34.8v8.12c0 .307-.113.573-.34.8-.227.227-.493.34-.8.34h-.94c-.307 0-.573-.113-.8-.34-.227-.227-.34-.493-.34-.8v-4.84h-.04l-2.46 4.96c-.333.68-.88 1.02-1.64 1.02h-.98zM120.398 18.32c-.307 0-.574-.113-.8-.34-.227-.227-.34-.493-.34-.8v-8.12c0-.307.113-.573.34-.8.226-.227.493-.34.8-.34h1c.306 0 .566.113.78.34.226.227.34.493.34.8v6.88c0 .107.06.16.18.16h2.58c.12 0 .18-.053.18-.16v-6.88c0-.307.113-.573.34-.8.226-.227.493-.34.8-.34h1c.306 0 .566.113.78.34.226.227.34.493.34.8v6.88c0 .107.06.16.18.16h.76c.306 0 .573.113.8.34.226.227.34.493.34.8v2.34c0 .307-.114.573-.34.8-.227.227-.494.34-.8.34h-.6c-.307 0-.574-.113-.8-.34-.227-.227-.34-.493-.34-.8v-1.08c0-.12-.054-.18-.16-.18h-7.36zM133.777 18.32c-.307 0-.574-.113-.8-.34-.227-.227-.34-.493-.34-.8v-8.12c0-.307.113-.573.34-.8.226-.227.493-.34.8-.34h1c.306 0 .566.113.78.34.226.227.34.493.34.8v6.88c0 .107.06.16.18.16h2.58c.12 0 .18-.053.18-.16v-6.88c0-.307.113-.573.34-.8.226-.227.493-.34.8-.34h1c.306 0 .566.113.78.34.226.227.34.493.34.8v6.88c0 .107.06.16.18.16h.76c.306 0 .573.113.8.34.226.227.34.493.34.8v2.34c0 .307-.114.573-.34.8-.227.227-.494.34-.8.34h-.6c-.307 0-.574-.113-.8-.34-.227-.227-.34-.493-.34-.8v-1.08c0-.12-.054-.18-.16-.18h-7.36zM150.916 13.56c-1.627 0-2.44.5-2.44 1.5 0 .36.106.647.32.86.213.2.5.3.86.3.64 0 1.16-.2 1.56-.6.4-.413.6-.96.6-1.64v-.24c0-.12-.06-.18-.18-.18h-.72zm-2.24 4.96c-.92 0-1.68-.293-2.28-.88-.587-.6-.88-1.373-.88-2.32 0-2.427 1.8-3.64 5.4-3.64h.72c.12 0 .18-.053.18-.16v-.1c0-.507-.134-.873-.4-1.1-.254-.227-.687-.34-1.3-.34-.814 0-1.787.127-2.92.38-.28.053-.534-.007-.76-.18-.214-.173-.32-.4-.32-.68v-.04c0-.333.1-.633.3-.9.213-.28.48-.447.8-.5 1.173-.227 2.186-.34 3.04-.34 1.746 0 2.98.313 3.7.94.733.627 1.1 1.667 1.1 3.12v5.4c0 .307-.114.573-.34.8-.227.227-.494.34-.8.34h-.74c-.32 0-.594-.107-.82-.32-.227-.227-.347-.5-.36-.82v-.22l-.02-.02-.04.02c-.84 1.04-1.927 1.56-3.26 1.56z" fill="#F3752B"/></svg>