<svg width="40" height="40" viewBox="0 0 40 40" xmlns="http://www.w3.org/2000/svg" fill="none"><path d="M20 0c-.661 0-1.315.032-1.96.095-.333.032-.577.329-.544.662l-.008.011-.038.005-.011-.008c-.054-.33-.366-.554-.696-.5-.87.143-1.721.341-2.549.592-.32.097-.501.435-.404.756l-.006.012c-.819.277-1.613.607-2.379.986l-.013-.004c-.158-.295-.525-.406-.82-.248-.385.206-.763.425-1.133.656-.284.177-.371.551-.194.835l-.003.013c-.363.242-.717.497-1.062.762l-.013-.002c-.212-.259-.594-.296-.853-.084-1.012.831-1.941 1.76-2.772 2.772-.212.259-.175.641.084.853l.002.013-.023.03-.013.002c-.272-.195-.651-.133-.846.139-.508.707-.97 1.449-1.384 2.221-.158.295-.047.662.248.82l.004.013c-.379.766-.709 1.56-.986 2.379l-.012.006c-.32-.097-.659.084-.756.404-.126.416-.239.837-.338 1.264-.076.326.127.652.453.727l.007.012c-.085.425-.155.856-.212 1.291l-.011.008c-.333-.032-.629.211-.662.544-.063.645-.095 1.299-.095 1.96s.032 1.315.095 1.96c.032.333.329.577.662.544l.011.008.005.038-.008.011c-.33.054-.554.366-.5.696.143.87.341 1.721.592 2.549.097.32.435.501.756.404l.012.006c.277.819.607 1.613.986 2.379l-.004.013c-.295.158-.406.525-.248.82.206.385.425.763.656 1.133.177.284.551.371.835.194l.013.003c.242.363.497.717.762 1.062l-.002.013c-.259.213-.296.594-.084.853.831 1.012 1.76 1.941 2.772 2.772.259.212.641.175.853-.084l.013-.002.03.023.002.013c-.195.272-.133.651.139.846.707.508 1.449.97 2.221 1.384.295.158.662.047.82-.248l.013-.004c.766.379 1.56.709 2.379.986l.006.012c-.097.32.084.659.404.756.416.126.837.239 1.264.338.326.076.652-.127.727-.453l.012-.007c.425.085.856.155 1.291.212l.008.011c-.032.333.211.63.544.662.645.063 1.299.095 1.96.095s1.315-.032 1.96-.095c.333-.032.577-.329.544-.662l.008-.011.038-.005.011.008c.054.33.366.554.696.5.87-.143 1.721-.341 2.549-.592.32-.097.501-.436.404-.756l.006-.012c.819-.277 1.613-.607 2.379-.986l.013.004c.158.295.525.406.82.248.385-.206.763-.425 1.133-.655.284-.177.371-.551.194-.835l.003-.013c.363-.242.717-.497 1.062-.762l.013.002c.213.259.594.296.853.084 1.012-.831 1.941-1.76 2.772-2.772.212-.259.175-.64-.084-.853l-.002-.013.023-.03.013-.002c.272.195.651.133.846-.139.508-.707.97-1.449 1.384-2.221.158-.295.047-.662-.248-.82l-.004-.013c.379-.766.709-1.56.986-2.379l.012-.006c.32.097.659-.084.756-.404.126-.416.239-.838.338-1.264.076-.326-.127-.652-.453-.727l-.007-.012c.085-.425.155-.856.212-1.291l.011-.008c.333.032.63-.211.662-.544.063-.645.095-1.299.095-1.96s-.032-1.315-.095-1.96c-.032-.333-.329-.577-.662-.544l-.011-.008-.005-.038.008-.011c.33-.054.554-.366.5-.696-.143-.87-.341-1.721-.592-2.549-.097-.32-.436-.501-.756-.404l-.012-.006c-.277-.819-.607-1.613-.986-2.379l.004-.013c.295-.158.406-.525.248-.82-.206-.385-.425-.763-.655-1.133-.177-.284-.551-.371-.835-.194l-.013-.003c-.242-.363-.497-.717-.762-1.062l.002-.013c.259-.212.296-.594.084-.853-.831-1.012-1.76-1.941-2.772-2.772-.259-.212-.64-.175-.853.084l-.013.002-.03-.023-.002-.013c.195-.272.133-.651-.139-.846-.707-.508-1.449-.97-2.221-1.384-.295-.158-.662-.047-.82.248l-.013.004c-.766-.379-1.56-.709-2.379-.986l-.006-.012c.097-.32-.084-.659-.404-.756-.416-.126-.838-.239-1.264-.338-.326-.076-.652.127-.727.453l-.012.007c-.425-.085-.856-.155-1.291-.212l-.008-.011c.032-.333-.211-.629-.544-.662-.645-.063-1.299-.095-1.96-.095z" fill="#FFC680"/><path d="M20 2.5c-.579 0-1.151.028-1.715.083-.291.028-.505.288-.477.579l-.007.009-.034.004-.009-.007c-.047-.289-.32-.485-.609-.438-.761.125-1.506.299-2.23.518-.28.085-.439.381-.354.661l-.005.011c-.716.242-1.411.531-2.081.863l-.011-.004c-.138-.258-.46-.355-.718-.217-.337.181-.668.372-.991.574-.248.155-.325.482-.17.731l-.002.012c-.318.212-.628.435-.929.667l-.012-.001c-.186-.226-.52-.259-.746-.073-.885.728-1.698 1.54-2.426 2.426-.186.226-.153.56.073.746l.001.012-.02.027-.012.002c-.238-.171-.569-.116-.74.122-.444.619-.849 1.268-1.211 1.943-.138.258-.041.58.217.718l.004.011c-.332.67-.621 1.365-.863 2.081l-.011.005c-.28-.085-.576.073-.661.354-.11.364-.209.733-.296 1.106-.066.285.111.57.397.637l.007.01c-.074.372-.136.749-.185 1.13l-.009.007c-.292-.028-.551.185-.579.477-.055.564-.083 1.137-.083 1.715 0 .579.028 1.151.083 1.715.028.291.288.505.579.477l.009.007.004.034-.007.009c-.289.047-.485.32-.438.609.125.761.299 1.506.518 2.23.085.28.381.439.661.354l.011.006c.242.716.531 1.411.863 2.081l-.004.011c-.258.138-.355.46-.217.718.181.337.372.668.574.991.155.248.482.325.731.17l.012.002c.212.318.435.628.667.93l-.001.012c-.226.186-.259.52-.073.746.728.885 1.54 1.698 2.426 2.426.226.186.56.153.746-.073l.012-.001.027.02.002.012c-.171.238-.116.569.122.74.619.444 1.268.849 1.943 1.211.258.138.58.041.718-.217l.011-.004c.67.332 1.365.621 2.081.863l.005.011c-.085.28.073.576.354.661.364.11.733.209 1.106.296.285.066.57-.111.637-.396l.01-.007c.372.074.749.136 1.13.185l.007.009c-.028.291.185.551.477.579.564.055 1.137.083 1.715.083.579 0 1.151-.028 1.715-.083.291-.028.505-.288.477-.579l.007-.009.034-.004.009.007c.047.289.32.485.609.438.761-.125 1.506-.298 2.23-.518.28-.085.439-.381.354-.661l.006-.011c.716-.242 1.411-.531 2.081-.863l.011.004c.138.258.46.355.718.217.337-.181.668-.372.991-.574.248-.155.325-.482.17-.73l.002-.012c.318-.212.628-.435.93-.667l.012.001c.186.226.52.259.746.073.885-.727 1.698-1.54 2.426-2.426.186-.226.153-.561-.073-.746l-.001-.012.02-.027.012-.002c.238.171.569.116.74-.122.444-.619.849-1.268 1.211-1.943.138-.258.041-.58-.217-.718l-.004-.011c.332-.67.621-1.365.863-2.081l.011-.006c.28.085.576-.073.661-.354.11-.364.209-.733.296-1.106.066-.285-.111-.57-.396-.637l-.007-.01c.074-.372.136-.749.185-1.13l.009-.007c.291.028.551-.185.579-.477.055-.564.083-1.137.083-1.715 0-.579-.028-1.151-.083-1.715-.028-.291-.288-.505-.579-.477l-.009-.007-.004-.034.007-.009c.289-.047.485-.32.438-.609-.125-.761-.298-1.506-.518-2.23-.085-.28-.381-.439-.661-.354l-.011-.005c-.242-.716-.531-1.411-.863-2.081l.004-.011c.258-.138.355-.46.217-.718-.181-.337-.372-.668-.574-.991-.155-.248-.482-.325-.73-.17l-.012-.002c-.212-.318-.435-.628-.667-.929l.001-.012c.226-.186.259-.52.073-.746-.727-.885-1.54-1.698-2.426-2.426-.226-.186-.561-.153-.746.073l-.012.001-.027-.02-.002-.012c.171-.238.116-.569-.122-.74-.619-.444-1.268-.849-1.943-1.211-.258-.138-.58-.041-.718.217l-.011.004c-.67-.332-1.365-.621-2.081-.863l-.006-.011c.085-.28-.073-.576-.354-.661-.364-.11-.733-.209-1.106-.296-.285-.066-.57.111-.637.397l-.01.007c-.372-.074-.749-.136-1.13-.185l-.007-.009c.028-.292-.185-.551-.477-.579-.564-.055-1.137-.083-1.715-.083z" fill="#F79D5C"/><path d="M10.625 10l-.306.015c-.052.005-.09.051-.085.104l-.001.002-.006.001-.002-.001c-.008-.052-.057-.087-.109-.078-.136.022-.269.053-.398.093-.05.015-.078.068-.063.118l-.001.002-.372.154-.002-.001c-.025-.046-.082-.063-.128-.039l-.177.102c-.044.028-.058.086-.03.13v.002l-.166.119h-.002c-.033-.04-.093-.046-.133-.013-.158.13-.303.275-.433.433-.033.04-.027.1.013.133v.002l-.004.005h-.002c-.042-.03-.102-.021-.132.022l-.216.347c-.025.046-.007.104.039.128l.001.002-.154.372-.002.001c-.05-.015-.103.013-.118.063l-.053.198c-.012.051.02.102.071.114l.001.002-.033.202-.002.001c-.052-.005-.098.033-.103.085l-.015.306.015.306c.005.052.051.09.103.085l.002.001.001.006-.001.002c-.052.008-.087.057-.078.109.022.136.053.269.093.398.015.05.068.078.118.063l.002.001.154.372-.001.002c-.046.025-.063.082-.039.128l.102.177c.028.044.086.058.13.03h.002l.119.166v.002c-.04.033-.046.093-.013.133.13.158.275.303.433.433.04.033.1.027.133-.013h.002l.005.004v.002c-.03.042-.021.102.022.132.11.079.226.152.347.216.046.025.103.007.128-.039l.002-.001.372.154.001.002c-.015.05.013.103.063.118l.198.053c.051.012.102-.02.114-.071l.002-.001.202.033.001.002c-.005.052.033.098.085.104l.306.015.306-.015c.052-.005.09-.051.085-.104l.001-.002.006-.001.002.001c.008.052.057.087.109.078.136-.022.269-.053.398-.093.05-.015.078-.068.063-.118l.001-.002.372-.154.002.001c.025.046.082.063.128.039l.177-.102c.044-.028.058-.086.03-.13v-.002l.166-.119h.002c.033.04.093.046.133.013.158-.13.303-.275.433-.433.033-.04.027-.1-.013-.133v-.002l.004-.005h.002c.042.03.102.021.132-.022l.216-.347c.025-.046.007-.104-.039-.128l-.001-.002.154-.372.002-.001c.05.015.103-.013.118-.063l.053-.198c.012-.051-.02-.102-.071-.114l-.001-.002.033-.202.002-.001c.052.005.098-.033.104-.085l.015-.306-.015-.306c-.005-.052-.051-.09-.104-.085l-.002-.001-.001-.006.001-.002c.052-.008.087-.057.078-.109-.022-.136-.053-.269-.093-.398-.015-.05-.068-.078-.118-.063l-.002-.001-.154-.372.001-.002c.046-.025.063-.082.039-.128l-.102-.177c-.028-.044-.086-.058-.13-.03h-.002l-.119-.166v-.002c.04-.033.046-.093.013-.133-.13-.158-.275-.303-.433-.433-.04-.033-.1-.027-.133.013h-.002l-.005-.004v-.002c.03-.042.021-.102-.022-.132l-.347-.216c-.046-.025-.104-.007-.128.039l-.002.001-.372-.154-.001-.002c.015-.05-.013-.103-.063-.118l-.198-.053c-.051-.012-.102.02-.114.071l-.002.001-.202-.033-.001-.002c.005-.052-.033-.098-.085-.104l-.306-.015zM14.375 27.5l-.306.015c-.052.005-.09.051-.085.104l-.001.002-.006.001-.002-.001c-.008-.052-.057-.087-.109-.078-.136.022-.269.053-.398.093-.05.015-.078.068-.063.118l-.001.002-.372.154-.002-.001c-.025-.046-.082-.063-.128-.039l-.177.102c-.044.028-.058.086-.03.131v.002l-.166.119h-.002c-.033-.04-.093-.046-.133-.013-.158.13-.303.275-.433.433-.033.04-.027.1.013.133v.002l-.004.005h-.002c-.042-.03-.102-.021-.132.022-.079.11-.152.226-.216.347-.025.046-.007.104.039.128l.001.002-.154.372-.002.001c-.05-.015-.103.013-.118.063l-.053.198c-.012.051.02.102.071.114l.001.002-.033.202-.002.001c-.052-.005-.098.033-.104.085l-.015.306.015.306c.005.052.051.09.104.085l.002.001.001.006-.001.002c-.052.008-.087.057-.078.109.022.136.053.269.093.398.015.05.068.078.118.063l.002.001.154.372-.001.002c-.046.025-.063.082-.039.128l.102.177c.028.044.086.058.13.03h.002l.119.166v.002c-.04.033-.046.093-.013.133.13.158.275.303.433.433.04.033.1.027.133-.013h.002l.005.004v.002c-.03.042-.021.102.022.132l.347.216c.046.025.104.007.128-.039l.002-.001.372.154.001.002c-.015.05.013.103.063.118l.198.053c.051.012.102-.02.114-.071l.002-.001.202.033.001.002c-.005.052.033.098.085.103l.306.015.306-.015c.052-.005.09-.051.085-.103l.001-.002.006-.001.002.001c.008.052.057.087.109.078.136-.022.269-.053.398-.093.05-.015.078-.068.063-.118l.001-.002.372-.154.002.001c.025.046.082.063.128.039l.177-.102c.044-.028.058-.086.03-.13v-.002l.166-.119h.002c.033.04.093.046.133.013.158-.13.303-.275.433-.433.033-.04.027-.1-.013-.133v-.002l.004-.005h.002c.042.03.102.021.132-.022l.216-.347c.025-.046.007-.103-.039-.128l-.001-.002.154-.372.002-.001c.05.015.103-.013.118-.063l.053-.198c.012-.051-.02-.102-.071-.114l-.001-.002.033-.202.002-.001c.052.005.098-.033.104-.085l.015-.306-.015-.306c-.005-.052-.051-.09-.104-.085l-.002-.001-.001-.006.001-.002c.052-.008.087-.057.078-.109-.022-.136-.053-.269-.093-.398-.015-.05-.068-.078-.118-.063l-.002-.001-.154-.372.001-.002c.046-.025.063-.082.039-.128l-.102-.177c-.028-.044-.086-.058-.131-.03h-.002l-.119-.166v-.002c.04-.033.046-.093.013-.133-.13-.158-.275-.303-.433-.433-.04-.033-.1-.027-.133.013h-.002l-.005-.004v-.002c.03-.042.021-.102-.022-.132-.11-.079-.226-.152-.347-.216-.046-.025-.104-.007-.128.039l-.002.001-.372-.154-.001-.002c.015-.05-.013-.103-.063-.118l-.198-.053c-.051-.012-.102.02-.114.071l-.002.001-.202-.033-.001-.002c.005-.052-.033-.098-.085-.104l-.306-.015zM24.375 12.5l-.306.015c-.052.005-.09.051-.085.104l-.001.002-.006.001-.002-.001c-.008-.052-.057-.087-.109-.078-.136.022-.269.053-.398.093-.05.015-.078.068-.063.118l-.001.002-.372.154-.002-.001c-.025-.046-.082-.063-.128-.039l-.177.102c-.044.028-.058.086-.03.13v.002l-.166.119h-.002c-.033-.04-.093-.046-.133-.013-.158.13-.303.275-.433.433-.033.04-.027.1.013.133v.002l-.004.005h-.002c-.042-.03-.102-.021-.132.022l-.216.347c-.025.046-.007.104.039.128l.001.002-.154.372-.002.001c-.05-.015-.103.013-.118.063l-.053.198c-.012.051.02.102.071.114l.001.002-.033.202-.002.001c-.052-.005-.098.033-.104.085l-.015.306.015.306c.005.052.051.09.104.085l.002.001.001.006-.001.002c-.052.008-.087.057-.078.109.022.136.053.269.093.398.015.05.068.078.118.063l.002.001.154.372-.001.002c-.046.025-.063.082-.039.128l.102.177c.028.044.086.058.131.03h.002l.119.166v.002c-.04.033-.046.093-.013.133.13.158.275.303.433.433.04.033.1.027.133-.013h.002l.005.004v.002c-.03.042-.021.102.022.132.11.079.226.152.347.216.046.025.104.007.128-.039l.002-.001.372.154.001.002c-.015.05.013.103.063.118l.198.053c.051.012.102-.02.114-.071l.002-.001.202.033.001.002c-.005.052.033.098.085.104l.306.015.306-.015c.052-.005.09-.051.085-.104l.001-.002.006-.001.002.001c.008.052.057.087.109.078.136-.022.269-.053.398-.093.05-.015.078-.068.063-.118l.001-.002.372-.154.002.001c.025.046.082.063.128.039l.177-.102c.044-.028.058-.086.03-.131v-.002l.166-.119h.002c.033.04.093.046.133.013.158-.13.303-.275.433-.433.033-.04.027-.1-.013-.133v-.002l.004-.005h.002c.042.03.102.021.132-.022.079-.11.152-.226.216-.347.025-.046.007-.104-.039-.128l-.001-.002.154-.372.002-.001c.05.015.103-.013.118-.063l.053-.198c.012-.051-.02-.102-.071-.114l-.001-.002.033-.202.002-.001c.052.005.098-.033.104-.085l.015-.306-.015-.306c-.005-.052-.051-.09-.104-.085l-.002-.001-.001-.006.001-.002c.052-.008.087-.057.078-.109-.022-.136-.053-.269-.093-.398-.015-.05-.068-.078-.118-.063l-.002-.001-.154-.372.001-.002c.046-.025.063-.082.039-.128l-.102-.177c-.028-.044-.086-.058-.131-.03h-.002l-.119-.166v-.002c.04-.033.046-.093.013-.133-.13-.158-.275-.303-.433-.433-.04-.033-.1-.027-.133.013h-.002l-.005-.004v-.002c.03-.042.021-.102-.022-.132-.11-.079-.226-.152-.347-.216-.046-.025-.104-.007-.128.039l-.002.001-.372-.154-.001-.002c.015-.05-.013-.103-.063-.118l-.198-.053c-.051-.012-.102.02-.114.071l-.002.001-.202-.033-.001-.002c.005-.052-.033-.098-.085-.104l-.306-.015z" fill="#F3752B"/><path fill-rule="evenodd" clip-rule="evenodd" d="M.303 22.926c.078-.186.247-.328.461-.363l.008-.011-.005-.038-.011-.008c-.333.032-.629-.211-.662-.544l-.018-.2c.135-.785.819-1.382 1.642-1.382h3.125c.282 0 .548.07.781.194.233-.124.499-.194.781-.194h4.688c.716 0 1.327.452 1.563 1.085.163-.439.507-.791.94-.965-.219-.056-.43-.158-.619-.307-.723-.57-.846-1.618-.276-2.341l1.926-2.44c.174-.22.392-.385.632-.491.048-.258.157-.509.331-.729l2.889-3.661c.439-.556 1.16-.757 1.798-.561-.339-.575-.311-1.324.128-1.879l.963-1.22c.57-.723 1.618-.846 2.341-.276.723.57.846 1.618.276 2.341l-.963 1.22c-.439.556-1.16.757-1.798.561.339.575.311 1.324-.128 1.88l-2.889 3.661c-.174.22-.392.385-.632.491-.047.258-.157.509-.331.729l-1.926 2.441c-.159.201-.355.356-.57.462h1.034c.92 0 1.667.746 1.667 1.667s-.746 1.667-1.667 1.667h-1.563c-.628 0-1.175-.348-1.459-.861-.048.257-.157.506-.33.726l-.963 1.22c-.439.556-1.16.757-1.798.561.339.575.311 1.324-.128 1.879l-2.889 3.661c-.174.22-.392.385-.632.491-.048.258-.157.509-.331.729l-.787.998-.362-.428c-.212-.259-.175-.64.084-.853l.002-.013c-.266-.345-.52-.699-.762-1.062l-.013-.003c-.284.177-.658.09-.835-.194l-.15-.245.208-.264c.174-.22.392-.385.632-.491.048-.258.157-.509.331-.729l2.889-3.661c.439-.556 1.16-.757 1.798-.561-.161-.274-.24-.587-.23-.9h-2.086c-.282 0-.548-.07-.781-.194-.233.124-.499.194-.781.194h-3.125c-.597 0-1.121-.314-1.415-.786zm30.543 13.602c-.017.182-.116.354-.283.458-.37.23-.748.449-1.133.655-.295.158-.662.047-.82-.248l-.013-.004-.328.159c.097-.453.379-.838.762-1.072-.479-.293-.799-.821-.799-1.424v-4.271c0-.255.057-.496.159-.712-.102-.216-.159-.457-.159-.712v-2.847c0-.921.746-1.667 1.667-1.667.92 0 1.667.746 1.667 1.667v2.847c0 .255-.057.496-.159.712.102.216.159.457.159.712v4.271c0 .211-.039.414-.111.6-.228.167-.459.329-.694.486l-.003.013c.053.085.082.178.09.272l-.081.053.081.052zm9.151-16.149c-.01.532-.041 1.06-.091 1.582-.032.333-.329.577-.662.544l-.011.008c-.052.4-.116.797-.192 1.189-.837-.089-1.489-.797-1.489-1.657 0-.92.746-1.667 1.667-1.667h.778zm-8.432-16.699l.001.052v1.424c0 .92-.746 1.667-1.667 1.667s-1.667-.746-1.667-1.667v-1.424l.011-.194-1.369 1.735c-.57.723-1.618.846-2.341.276-.723-.57-.846-1.618-.276-2.341l1.765-2.236c.18.151.263.401.19.64l.006.012c.819.277 1.613.607 2.379.986l.013-.004c.158-.295.525-.406.82-.248.741.397 1.453.839 2.134 1.322zm.001 5.747c0-.92-.746-1.667-1.667-1.667s-1.667.746-1.667 1.667v2.847c0 .255.057.496.159.712-.102.216-.159.457-.159.712v4.271c0 .603.32 1.131.799 1.424-.359.219-.629.571-.742.986h-3.133c-.282 0-.548.07-.781.194-.233-.124-.499-.194-.781-.194h-3.125c-.921 0-1.667.746-1.667 1.667s.746 1.667 1.667 1.667h3.125c.282 0 .548-.07.781-.194.233.124.499.194.781.194h3.961c.233.124.499.194.781.194.73 0 1.35-.469 1.576-1.122.272.55.839.928 1.495.928h1.563c.92 0 1.667-.746 1.667-1.667 0-.92-.746-1.667-1.667-1.667h-1.563c-.59 0-1.108.306-1.404.768v-.331c0-.603-.32-1.131-.8-1.424.48-.293.8-.821.8-1.424v-4.271c0-.255-.057-.496-.159-.712.102-.216.159-.457.159-.712v-2.847z" fill="#fff"/><path d="M18.75 5c0 2.761-2.239 5-5 5 0-2.761 2.239-5 5-5z" fill="#00A896"/><path fill-rule="evenodd" clip-rule="evenodd" d="M17.415 4.437c.115-.102.26-.174.423-.199.298-.047.602-.071.912-.071.46 0 .833.373.833.833 0 .31-.024.614-.071.912-.063.4-.401.689-.791.704.307.241.411.673.227 1.034-.14.273-.3.534-.479.78-.238.327-.67.43-1.024.266.164.354.061.785-.266 1.024-.49.356-1.037.639-1.627.83-.157.051-.319.053-.468.014-.115.102-.26.174-.423.199-.298.047-.602.071-.912.071-.46 0-.833-.373-.833-.833 0-.31.024-.614.071-.912.063-.4.401-.689.791-.704-.307-.241-.411-.673-.227-1.034.14-.273.3-.534.479-.78.238-.327.67-.43 1.024-.266-.164-.354-.061-.785.266-1.024.49-.356 1.037-.639 1.627-.83.157-.051.319-.053.468-.014zm-1.954 2.274c.122.265.101.587-.083.84-.128.176-.243.362-.342.557-.142.278-.419.442-.71.454.17.134.284.331.312.55l.105.02c.083-.074.183-.132.295-.169.42-.136.81-.338 1.16-.592.253-.184.575-.205.84-.083-.122-.265-.101-.587.083-.84.128-.176.243-.362.342-.557.142-.278.419-.442.71-.454-.17-.134-.284-.331-.312-.55l-.105-.02c-.083.074-.183.132-.295.169-.419.136-.81.338-1.16.592-.253.184-.575.205-.84.083z" fill="#00A896"/><path d="M18.75 26.25c2.761 0 5 2.239 5 5-2.761 0-5-2.239-5-5z" fill="#00A896"/><path fill-rule="evenodd" clip-rule="evenodd" d="M18.187 27.585c-.102-.115-.174-.26-.2-.423-.047-.297-.071-.602-.071-.912 0-.46.373-.833.833-.833.31 0 .614.024.912.071.4.063.689.401.704.791.241-.307.673-.411 1.034-.227.273.14.534.3.78.479.327.238.43.67.266 1.024.354-.164.785-.061 1.024.266.356.489.639 1.037.83 1.626.051.157.053.319.014.468.102.115.174.26.2.423.047.298.071.602.071.912 0 .46-.373.833-.833.833-.31 0-.614-.024-.912-.071-.4-.063-.689-.401-.704-.791-.241.307-.673.411-1.034.227-.273-.139-.534-.3-.78-.479-.327-.238-.43-.67-.266-1.024-.354.164-.785.061-1.024-.266-.356-.49-.639-1.037-.83-1.627-.051-.157-.053-.319-.014-.468zm2.274 1.954c.265-.122.587-.101.84.083.176.128.362.243.557.342.278.142.442.419.454.71.134-.17.331-.284.55-.312l.02-.105c-.074-.083-.132-.183-.169-.295-.136-.42-.337-.81-.592-1.16-.184-.253-.205-.575-.083-.84-.265.122-.587.101-.84-.083-.176-.128-.362-.243-.557-.342-.278-.142-.442-.419-.454-.71-.134.17-.331.284-.55.312l-.02.105c.074.083.132.183.169.295.136.419.337.81.592 1.16.184.253.205.575.083.84z" fill="#00A896"/></svg>